<?xml version="1.0" encoding="utf-8" standalone="no"?>
<!DOCTYPE svg PUBLIC "-//W3C//DTD SVG 1.1//EN"
  "http://www.w3.org/Graphics/SVG/1.1/DTD/svg11.dtd">
<svg xmlns:xlink="http://www.w3.org/1999/xlink" width="460.8pt" height="345.6pt" viewBox="0 0 460.8 345.6" xmlns="http://www.w3.org/2000/svg" version="1.1">
 <metadata>
  <rdf:RDF xmlns:dc="http://purl.org/dc/elements/1.1/" xmlns:cc="http://creativecommons.org/ns#" xmlns:rdf="http://www.w3.org/1999/02/22-rdf-syntax-ns#">
   <cc:Work>
    <dc:type rdf:resource="http://purl.org/dc/dcmitype/StillImage"/>
    <dc:date>2023-02-04T14:28:41.905508</dc:date>
    <dc:format>image/svg+xml</dc:format>
    <dc:creator>
     <cc:Agent>
      <dc:title>Matplotlib v3.6.3, https://matplotlib.org/</dc:title>
     </cc:Agent>
    </dc:creator>
   </cc:Work>
  </rdf:RDF>
 </metadata>
 <defs>
  <style type="text/css">*{stroke-linejoin: round; stroke-linecap: butt}</style>
 </defs>
 <g id="figure_1">
  <g id="patch_1">
   <path d="M 0 345.6 
L 460.8 345.6 
L 460.8 0 
L 0 0 
z
" style="fill: #ffffff"/>
  </g>
  <g id="axes_1">
   <g id="patch_2">
    <path d="M 57.6 307.584 
L 414.72 307.584 
L 414.72 41.472 
L 57.6 41.472 
z
" style="fill: #ffffff"/>
   </g>
   <g id="matplotlib.axis_1">
    <g id="xtick_1">
     <g id="line2d_1">
      <path d="M 73.832727 307.584 
L 73.832727 41.472 
" clip-path="url(#p1271d0381a)" style="fill: none; stroke: #b0b0b0; stroke-width: 0.8; stroke-linecap: square"/>
     </g>
     <g id="line2d_2">
      <defs>
       <path id="mce131bf06e" d="M 0 0 
L 0 3.5 
" style="stroke: #000000; stroke-width: 0.8"/>
      </defs>
      <g>
       <use xlink:href="#mce131bf06e" x="73.832727" y="307.584" style="stroke: #000000; stroke-width: 0.8"/>
      </g>
     </g>
     <g id="text_1">
      <!-- 0 -->
      <g transform="translate(70.651477 322.182437) scale(0.1 -0.1)">
       <defs>
        <path id="DejaVuSans-30" d="M 2034 4250 
Q 1547 4250 1301 3770 
Q 1056 3291 1056 2328 
Q 1056 1369 1301 889 
Q 1547 409 2034 409 
Q 2525 409 2770 889 
Q 3016 1369 3016 2328 
Q 3016 3291 2770 3770 
Q 2525 4250 2034 4250 
z
M 2034 4750 
Q 2819 4750 3233 4129 
Q 3647 3509 3647 2328 
Q 3647 1150 3233 529 
Q 2819 -91 2034 -91 
Q 1250 -91 836 529 
Q 422 1150 422 2328 
Q 422 3509 836 4129 
Q 1250 4750 2034 4750 
z
" transform="scale(0.015625)"/>
       </defs>
       <use xlink:href="#DejaVuSans-30"/>
      </g>
     </g>
    </g>
    <g id="xtick_2">
     <g id="line2d_3">
      <path d="M 127.941818 307.584 
L 127.941818 41.472 
" clip-path="url(#p1271d0381a)" style="fill: none; stroke: #b0b0b0; stroke-width: 0.8; stroke-linecap: square"/>
     </g>
     <g id="line2d_4">
      <g>
       <use xlink:href="#mce131bf06e" x="127.941818" y="307.584" style="stroke: #000000; stroke-width: 0.8"/>
      </g>
     </g>
     <g id="text_2">
      <!-- 500 -->
      <g transform="translate(118.398068 322.182437) scale(0.1 -0.1)">
       <defs>
        <path id="DejaVuSans-35" d="M 691 4666 
L 3169 4666 
L 3169 4134 
L 1269 4134 
L 1269 2991 
Q 1406 3038 1543 3061 
Q 1681 3084 1819 3084 
Q 2600 3084 3056 2656 
Q 3513 2228 3513 1497 
Q 3513 744 3044 326 
Q 2575 -91 1722 -91 
Q 1428 -91 1123 -41 
Q 819 9 494 109 
L 494 744 
Q 775 591 1075 516 
Q 1375 441 1709 441 
Q 2250 441 2565 725 
Q 2881 1009 2881 1497 
Q 2881 1984 2565 2268 
Q 2250 2553 1709 2553 
Q 1456 2553 1204 2497 
Q 953 2441 691 2322 
L 691 4666 
z
" transform="scale(0.015625)"/>
       </defs>
       <use xlink:href="#DejaVuSans-35"/>
       <use xlink:href="#DejaVuSans-30" x="63.623047"/>
       <use xlink:href="#DejaVuSans-30" x="127.246094"/>
      </g>
     </g>
    </g>
    <g id="xtick_3">
     <g id="line2d_5">
      <path d="M 182.050909 307.584 
L 182.050909 41.472 
" clip-path="url(#p1271d0381a)" style="fill: none; stroke: #b0b0b0; stroke-width: 0.8; stroke-linecap: square"/>
     </g>
     <g id="line2d_6">
      <g>
       <use xlink:href="#mce131bf06e" x="182.050909" y="307.584" style="stroke: #000000; stroke-width: 0.8"/>
      </g>
     </g>
     <g id="text_3">
      <!-- 1000 -->
      <g transform="translate(169.325909 322.182437) scale(0.1 -0.1)">
       <defs>
        <path id="DejaVuSans-31" d="M 794 531 
L 1825 531 
L 1825 4091 
L 703 3866 
L 703 4441 
L 1819 4666 
L 2450 4666 
L 2450 531 
L 3481 531 
L 3481 0 
L 794 0 
L 794 531 
z
" transform="scale(0.015625)"/>
       </defs>
       <use xlink:href="#DejaVuSans-31"/>
       <use xlink:href="#DejaVuSans-30" x="63.623047"/>
       <use xlink:href="#DejaVuSans-30" x="127.246094"/>
       <use xlink:href="#DejaVuSans-30" x="190.869141"/>
      </g>
     </g>
    </g>
    <g id="xtick_4">
     <g id="line2d_7">
      <path d="M 236.16 307.584 
L 236.16 41.472 
" clip-path="url(#p1271d0381a)" style="fill: none; stroke: #b0b0b0; stroke-width: 0.8; stroke-linecap: square"/>
     </g>
     <g id="line2d_8">
      <g>
       <use xlink:href="#mce131bf06e" x="236.16" y="307.584" style="stroke: #000000; stroke-width: 0.8"/>
      </g>
     </g>
     <g id="text_4">
      <!-- 1500 -->
      <g transform="translate(223.435 322.182437) scale(0.1 -0.1)">
       <use xlink:href="#DejaVuSans-31"/>
       <use xlink:href="#DejaVuSans-35" x="63.623047"/>
       <use xlink:href="#DejaVuSans-30" x="127.246094"/>
       <use xlink:href="#DejaVuSans-30" x="190.869141"/>
      </g>
     </g>
    </g>
    <g id="xtick_5">
     <g id="line2d_9">
      <path d="M 290.269091 307.584 
L 290.269091 41.472 
" clip-path="url(#p1271d0381a)" style="fill: none; stroke: #b0b0b0; stroke-width: 0.8; stroke-linecap: square"/>
     </g>
     <g id="line2d_10">
      <g>
       <use xlink:href="#mce131bf06e" x="290.269091" y="307.584" style="stroke: #000000; stroke-width: 0.8"/>
      </g>
     </g>
     <g id="text_5">
      <!-- 2000 -->
      <g transform="translate(277.544091 322.182437) scale(0.1 -0.1)">
       <defs>
        <path id="DejaVuSans-32" d="M 1228 531 
L 3431 531 
L 3431 0 
L 469 0 
L 469 531 
Q 828 903 1448 1529 
Q 2069 2156 2228 2338 
Q 2531 2678 2651 2914 
Q 2772 3150 2772 3378 
Q 2772 3750 2511 3984 
Q 2250 4219 1831 4219 
Q 1534 4219 1204 4116 
Q 875 4013 500 3803 
L 500 4441 
Q 881 4594 1212 4672 
Q 1544 4750 1819 4750 
Q 2544 4750 2975 4387 
Q 3406 4025 3406 3419 
Q 3406 3131 3298 2873 
Q 3191 2616 2906 2266 
Q 2828 2175 2409 1742 
Q 1991 1309 1228 531 
z
" transform="scale(0.015625)"/>
       </defs>
       <use xlink:href="#DejaVuSans-32"/>
       <use xlink:href="#DejaVuSans-30" x="63.623047"/>
       <use xlink:href="#DejaVuSans-30" x="127.246094"/>
       <use xlink:href="#DejaVuSans-30" x="190.869141"/>
      </g>
     </g>
    </g>
    <g id="xtick_6">
     <g id="line2d_11">
      <path d="M 344.378182 307.584 
L 344.378182 41.472 
" clip-path="url(#p1271d0381a)" style="fill: none; stroke: #b0b0b0; stroke-width: 0.8; stroke-linecap: square"/>
     </g>
     <g id="line2d_12">
      <g>
       <use xlink:href="#mce131bf06e" x="344.378182" y="307.584" style="stroke: #000000; stroke-width: 0.8"/>
      </g>
     </g>
     <g id="text_6">
      <!-- 2500 -->
      <g transform="translate(331.653182 322.182437) scale(0.1 -0.1)">
       <use xlink:href="#DejaVuSans-32"/>
       <use xlink:href="#DejaVuSans-35" x="63.623047"/>
       <use xlink:href="#DejaVuSans-30" x="127.246094"/>
       <use xlink:href="#DejaVuSans-30" x="190.869141"/>
      </g>
     </g>
    </g>
    <g id="xtick_7">
     <g id="line2d_13">
      <path d="M 398.487273 307.584 
L 398.487273 41.472 
" clip-path="url(#p1271d0381a)" style="fill: none; stroke: #b0b0b0; stroke-width: 0.8; stroke-linecap: square"/>
     </g>
     <g id="line2d_14">
      <g>
       <use xlink:href="#mce131bf06e" x="398.487273" y="307.584" style="stroke: #000000; stroke-width: 0.8"/>
      </g>
     </g>
     <g id="text_7">
      <!-- 3000 -->
      <g transform="translate(385.762273 322.182437) scale(0.1 -0.1)">
       <defs>
        <path id="DejaVuSans-33" d="M 2597 2516 
Q 3050 2419 3304 2112 
Q 3559 1806 3559 1356 
Q 3559 666 3084 287 
Q 2609 -91 1734 -91 
Q 1441 -91 1130 -33 
Q 819 25 488 141 
L 488 750 
Q 750 597 1062 519 
Q 1375 441 1716 441 
Q 2309 441 2620 675 
Q 2931 909 2931 1356 
Q 2931 1769 2642 2001 
Q 2353 2234 1838 2234 
L 1294 2234 
L 1294 2753 
L 1863 2753 
Q 2328 2753 2575 2939 
Q 2822 3125 2822 3475 
Q 2822 3834 2567 4026 
Q 2313 4219 1838 4219 
Q 1578 4219 1281 4162 
Q 984 4106 628 3988 
L 628 4550 
Q 988 4650 1302 4700 
Q 1616 4750 1894 4750 
Q 2613 4750 3031 4423 
Q 3450 4097 3450 3541 
Q 3450 3153 3228 2886 
Q 3006 2619 2597 2516 
z
" transform="scale(0.015625)"/>
       </defs>
       <use xlink:href="#DejaVuSans-33"/>
       <use xlink:href="#DejaVuSans-30" x="63.623047"/>
       <use xlink:href="#DejaVuSans-30" x="127.246094"/>
       <use xlink:href="#DejaVuSans-30" x="190.869141"/>
      </g>
     </g>
    </g>
    <g id="text_8">
     <!-- Iterations -->
     <g transform="translate(212.346719 335.860562) scale(0.1 -0.1)">
      <defs>
       <path id="DejaVuSans-49" d="M 628 4666 
L 1259 4666 
L 1259 0 
L 628 0 
L 628 4666 
z
" transform="scale(0.015625)"/>
       <path id="DejaVuSans-74" d="M 1172 4494 
L 1172 3500 
L 2356 3500 
L 2356 3053 
L 1172 3053 
L 1172 1153 
Q 1172 725 1289 603 
Q 1406 481 1766 481 
L 2356 481 
L 2356 0 
L 1766 0 
Q 1100 0 847 248 
Q 594 497 594 1153 
L 594 3053 
L 172 3053 
L 172 3500 
L 594 3500 
L 594 4494 
L 1172 4494 
z
" transform="scale(0.015625)"/>
       <path id="DejaVuSans-65" d="M 3597 1894 
L 3597 1613 
L 953 1613 
Q 991 1019 1311 708 
Q 1631 397 2203 397 
Q 2534 397 2845 478 
Q 3156 559 3463 722 
L 3463 178 
Q 3153 47 2828 -22 
Q 2503 -91 2169 -91 
Q 1331 -91 842 396 
Q 353 884 353 1716 
Q 353 2575 817 3079 
Q 1281 3584 2069 3584 
Q 2775 3584 3186 3129 
Q 3597 2675 3597 1894 
z
M 3022 2063 
Q 3016 2534 2758 2815 
Q 2500 3097 2075 3097 
Q 1594 3097 1305 2825 
Q 1016 2553 972 2059 
L 3022 2063 
z
" transform="scale(0.015625)"/>
       <path id="DejaVuSans-72" d="M 2631 2963 
Q 2534 3019 2420 3045 
Q 2306 3072 2169 3072 
Q 1681 3072 1420 2755 
Q 1159 2438 1159 1844 
L 1159 0 
L 581 0 
L 581 3500 
L 1159 3500 
L 1159 2956 
Q 1341 3275 1631 3429 
Q 1922 3584 2338 3584 
Q 2397 3584 2469 3576 
Q 2541 3569 2628 3553 
L 2631 2963 
z
" transform="scale(0.015625)"/>
       <path id="DejaVuSans-61" d="M 2194 1759 
Q 1497 1759 1228 1600 
Q 959 1441 959 1056 
Q 959 750 1161 570 
Q 1363 391 1709 391 
Q 2188 391 2477 730 
Q 2766 1069 2766 1631 
L 2766 1759 
L 2194 1759 
z
M 3341 1997 
L 3341 0 
L 2766 0 
L 2766 531 
Q 2569 213 2275 61 
Q 1981 -91 1556 -91 
Q 1019 -91 701 211 
Q 384 513 384 1019 
Q 384 1609 779 1909 
Q 1175 2209 1959 2209 
L 2766 2209 
L 2766 2266 
Q 2766 2663 2505 2880 
Q 2244 3097 1772 3097 
Q 1472 3097 1187 3025 
Q 903 2953 641 2809 
L 641 3341 
Q 956 3463 1253 3523 
Q 1550 3584 1831 3584 
Q 2591 3584 2966 3190 
Q 3341 2797 3341 1997 
z
" transform="scale(0.015625)"/>
       <path id="DejaVuSans-69" d="M 603 3500 
L 1178 3500 
L 1178 0 
L 603 0 
L 603 3500 
z
M 603 4863 
L 1178 4863 
L 1178 4134 
L 603 4134 
L 603 4863 
z
" transform="scale(0.015625)"/>
       <path id="DejaVuSans-6f" d="M 1959 3097 
Q 1497 3097 1228 2736 
Q 959 2375 959 1747 
Q 959 1119 1226 758 
Q 1494 397 1959 397 
Q 2419 397 2687 759 
Q 2956 1122 2956 1747 
Q 2956 2369 2687 2733 
Q 2419 3097 1959 3097 
z
M 1959 3584 
Q 2709 3584 3137 3096 
Q 3566 2609 3566 1747 
Q 3566 888 3137 398 
Q 2709 -91 1959 -91 
Q 1206 -91 779 398 
Q 353 888 353 1747 
Q 353 2609 779 3096 
Q 1206 3584 1959 3584 
z
" transform="scale(0.015625)"/>
       <path id="DejaVuSans-6e" d="M 3513 2113 
L 3513 0 
L 2938 0 
L 2938 2094 
Q 2938 2591 2744 2837 
Q 2550 3084 2163 3084 
Q 1697 3084 1428 2787 
Q 1159 2491 1159 1978 
L 1159 0 
L 581 0 
L 581 3500 
L 1159 3500 
L 1159 2956 
Q 1366 3272 1645 3428 
Q 1925 3584 2291 3584 
Q 2894 3584 3203 3211 
Q 3513 2838 3513 2113 
z
" transform="scale(0.015625)"/>
       <path id="DejaVuSans-73" d="M 2834 3397 
L 2834 2853 
Q 2591 2978 2328 3040 
Q 2066 3103 1784 3103 
Q 1356 3103 1142 2972 
Q 928 2841 928 2578 
Q 928 2378 1081 2264 
Q 1234 2150 1697 2047 
L 1894 2003 
Q 2506 1872 2764 1633 
Q 3022 1394 3022 966 
Q 3022 478 2636 193 
Q 2250 -91 1575 -91 
Q 1294 -91 989 -36 
Q 684 19 347 128 
L 347 722 
Q 666 556 975 473 
Q 1284 391 1588 391 
Q 1994 391 2212 530 
Q 2431 669 2431 922 
Q 2431 1156 2273 1281 
Q 2116 1406 1581 1522 
L 1381 1569 
Q 847 1681 609 1914 
Q 372 2147 372 2553 
Q 372 3047 722 3315 
Q 1072 3584 1716 3584 
Q 2034 3584 2315 3537 
Q 2597 3491 2834 3397 
z
" transform="scale(0.015625)"/>
      </defs>
      <use xlink:href="#DejaVuSans-49"/>
      <use xlink:href="#DejaVuSans-74" x="29.492188"/>
      <use xlink:href="#DejaVuSans-65" x="68.701172"/>
      <use xlink:href="#DejaVuSans-72" x="130.224609"/>
      <use xlink:href="#DejaVuSans-61" x="171.337891"/>
      <use xlink:href="#DejaVuSans-74" x="232.617188"/>
      <use xlink:href="#DejaVuSans-69" x="271.826172"/>
      <use xlink:href="#DejaVuSans-6f" x="299.609375"/>
      <use xlink:href="#DejaVuSans-6e" x="360.791016"/>
      <use xlink:href="#DejaVuSans-73" x="424.169922"/>
     </g>
    </g>
   </g>
   <g id="matplotlib.axis_2">
    <g id="ytick_1">
     <g id="line2d_15">
      <path d="M 57.6 302.560212 
L 414.72 302.560212 
" clip-path="url(#p1271d0381a)" style="fill: none; stroke: #b0b0b0; stroke-width: 0.8; stroke-linecap: square"/>
     </g>
     <g id="line2d_16">
      <defs>
       <path id="mc2de068de4" d="M 0 0 
L -3.5 0 
" style="stroke: #000000; stroke-width: 0.8"/>
      </defs>
      <g>
       <use xlink:href="#mc2de068de4" x="57.6" y="302.560212" style="stroke: #000000; stroke-width: 0.8"/>
      </g>
     </g>
     <g id="text_9">
      <!-- −3.0 -->
      <g transform="translate(26.317187 306.35943) scale(0.1 -0.1)">
       <defs>
        <path id="DejaVuSans-2212" d="M 678 2272 
L 4684 2272 
L 4684 1741 
L 678 1741 
L 678 2272 
z
" transform="scale(0.015625)"/>
        <path id="DejaVuSans-2e" d="M 684 794 
L 1344 794 
L 1344 0 
L 684 0 
L 684 794 
z
" transform="scale(0.015625)"/>
       </defs>
       <use xlink:href="#DejaVuSans-2212"/>
       <use xlink:href="#DejaVuSans-33" x="83.789062"/>
       <use xlink:href="#DejaVuSans-2e" x="147.412109"/>
       <use xlink:href="#DejaVuSans-30" x="179.199219"/>
      </g>
     </g>
    </g>
    <g id="ytick_2">
     <g id="line2d_17">
      <path d="M 57.6 249.712873 
L 414.72 249.712873 
" clip-path="url(#p1271d0381a)" style="fill: none; stroke: #b0b0b0; stroke-width: 0.8; stroke-linecap: square"/>
     </g>
     <g id="line2d_18">
      <g>
       <use xlink:href="#mc2de068de4" x="57.6" y="249.712873" style="stroke: #000000; stroke-width: 0.8"/>
      </g>
     </g>
     <g id="text_10">
      <!-- −2.8 -->
      <g transform="translate(26.317187 253.512092) scale(0.1 -0.1)">
       <defs>
        <path id="DejaVuSans-38" d="M 2034 2216 
Q 1584 2216 1326 1975 
Q 1069 1734 1069 1313 
Q 1069 891 1326 650 
Q 1584 409 2034 409 
Q 2484 409 2743 651 
Q 3003 894 3003 1313 
Q 3003 1734 2745 1975 
Q 2488 2216 2034 2216 
z
M 1403 2484 
Q 997 2584 770 2862 
Q 544 3141 544 3541 
Q 544 4100 942 4425 
Q 1341 4750 2034 4750 
Q 2731 4750 3128 4425 
Q 3525 4100 3525 3541 
Q 3525 3141 3298 2862 
Q 3072 2584 2669 2484 
Q 3125 2378 3379 2068 
Q 3634 1759 3634 1313 
Q 3634 634 3220 271 
Q 2806 -91 2034 -91 
Q 1263 -91 848 271 
Q 434 634 434 1313 
Q 434 1759 690 2068 
Q 947 2378 1403 2484 
z
M 1172 3481 
Q 1172 3119 1398 2916 
Q 1625 2713 2034 2713 
Q 2441 2713 2670 2916 
Q 2900 3119 2900 3481 
Q 2900 3844 2670 4047 
Q 2441 4250 2034 4250 
Q 1625 4250 1398 4047 
Q 1172 3844 1172 3481 
z
" transform="scale(0.015625)"/>
       </defs>
       <use xlink:href="#DejaVuSans-2212"/>
       <use xlink:href="#DejaVuSans-32" x="83.789062"/>
       <use xlink:href="#DejaVuSans-2e" x="147.412109"/>
       <use xlink:href="#DejaVuSans-38" x="179.199219"/>
      </g>
     </g>
    </g>
    <g id="ytick_3">
     <g id="line2d_19">
      <path d="M 57.6 196.865534 
L 414.72 196.865534 
" clip-path="url(#p1271d0381a)" style="fill: none; stroke: #b0b0b0; stroke-width: 0.8; stroke-linecap: square"/>
     </g>
     <g id="line2d_20">
      <g>
       <use xlink:href="#mc2de068de4" x="57.6" y="196.865534" style="stroke: #000000; stroke-width: 0.8"/>
      </g>
     </g>
     <g id="text_11">
      <!-- −2.6 -->
      <g transform="translate(26.317187 200.664753) scale(0.1 -0.1)">
       <defs>
        <path id="DejaVuSans-36" d="M 2113 2584 
Q 1688 2584 1439 2293 
Q 1191 2003 1191 1497 
Q 1191 994 1439 701 
Q 1688 409 2113 409 
Q 2538 409 2786 701 
Q 3034 994 3034 1497 
Q 3034 2003 2786 2293 
Q 2538 2584 2113 2584 
z
M 3366 4563 
L 3366 3988 
Q 3128 4100 2886 4159 
Q 2644 4219 2406 4219 
Q 1781 4219 1451 3797 
Q 1122 3375 1075 2522 
Q 1259 2794 1537 2939 
Q 1816 3084 2150 3084 
Q 2853 3084 3261 2657 
Q 3669 2231 3669 1497 
Q 3669 778 3244 343 
Q 2819 -91 2113 -91 
Q 1303 -91 875 529 
Q 447 1150 447 2328 
Q 447 3434 972 4092 
Q 1497 4750 2381 4750 
Q 2619 4750 2861 4703 
Q 3103 4656 3366 4563 
z
" transform="scale(0.015625)"/>
       </defs>
       <use xlink:href="#DejaVuSans-2212"/>
       <use xlink:href="#DejaVuSans-32" x="83.789062"/>
       <use xlink:href="#DejaVuSans-2e" x="147.412109"/>
       <use xlink:href="#DejaVuSans-36" x="179.199219"/>
      </g>
     </g>
    </g>
    <g id="ytick_4">
     <g id="line2d_21">
      <path d="M 57.6 144.018195 
L 414.72 144.018195 
" clip-path="url(#p1271d0381a)" style="fill: none; stroke: #b0b0b0; stroke-width: 0.8; stroke-linecap: square"/>
     </g>
     <g id="line2d_22">
      <g>
       <use xlink:href="#mc2de068de4" x="57.6" y="144.018195" style="stroke: #000000; stroke-width: 0.8"/>
      </g>
     </g>
     <g id="text_12">
      <!-- −2.4 -->
      <g transform="translate(26.317187 147.817414) scale(0.1 -0.1)">
       <defs>
        <path id="DejaVuSans-34" d="M 2419 4116 
L 825 1625 
L 2419 1625 
L 2419 4116 
z
M 2253 4666 
L 3047 4666 
L 3047 1625 
L 3713 1625 
L 3713 1100 
L 3047 1100 
L 3047 0 
L 2419 0 
L 2419 1100 
L 313 1100 
L 313 1709 
L 2253 4666 
z
" transform="scale(0.015625)"/>
       </defs>
       <use xlink:href="#DejaVuSans-2212"/>
       <use xlink:href="#DejaVuSans-32" x="83.789062"/>
       <use xlink:href="#DejaVuSans-2e" x="147.412109"/>
       <use xlink:href="#DejaVuSans-34" x="179.199219"/>
      </g>
     </g>
    </g>
    <g id="ytick_5">
     <g id="line2d_23">
      <path d="M 57.6 91.170856 
L 414.72 91.170856 
" clip-path="url(#p1271d0381a)" style="fill: none; stroke: #b0b0b0; stroke-width: 0.8; stroke-linecap: square"/>
     </g>
     <g id="line2d_24">
      <g>
       <use xlink:href="#mc2de068de4" x="57.6" y="91.170856" style="stroke: #000000; stroke-width: 0.8"/>
      </g>
     </g>
     <g id="text_13">
      <!-- −2.2 -->
      <g transform="translate(26.317187 94.970075) scale(0.1 -0.1)">
       <use xlink:href="#DejaVuSans-2212"/>
       <use xlink:href="#DejaVuSans-32" x="83.789062"/>
       <use xlink:href="#DejaVuSans-2e" x="147.412109"/>
       <use xlink:href="#DejaVuSans-32" x="179.199219"/>
      </g>
     </g>
    </g>
    <g id="text_14">
     <!-- Energy -->
     <g transform="translate(20.2375 192.03425) rotate(-90) scale(0.1 -0.1)">
      <defs>
       <path id="DejaVuSans-45" d="M 628 4666 
L 3578 4666 
L 3578 4134 
L 1259 4134 
L 1259 2753 
L 3481 2753 
L 3481 2222 
L 1259 2222 
L 1259 531 
L 3634 531 
L 3634 0 
L 628 0 
L 628 4666 
z
" transform="scale(0.015625)"/>
       <path id="DejaVuSans-67" d="M 2906 1791 
Q 2906 2416 2648 2759 
Q 2391 3103 1925 3103 
Q 1463 3103 1205 2759 
Q 947 2416 947 1791 
Q 947 1169 1205 825 
Q 1463 481 1925 481 
Q 2391 481 2648 825 
Q 2906 1169 2906 1791 
z
M 3481 434 
Q 3481 -459 3084 -895 
Q 2688 -1331 1869 -1331 
Q 1566 -1331 1297 -1286 
Q 1028 -1241 775 -1147 
L 775 -588 
Q 1028 -725 1275 -790 
Q 1522 -856 1778 -856 
Q 2344 -856 2625 -561 
Q 2906 -266 2906 331 
L 2906 616 
Q 2728 306 2450 153 
Q 2172 0 1784 0 
Q 1141 0 747 490 
Q 353 981 353 1791 
Q 353 2603 747 3093 
Q 1141 3584 1784 3584 
Q 2172 3584 2450 3431 
Q 2728 3278 2906 2969 
L 2906 3500 
L 3481 3500 
L 3481 434 
z
" transform="scale(0.015625)"/>
       <path id="DejaVuSans-79" d="M 2059 -325 
Q 1816 -950 1584 -1140 
Q 1353 -1331 966 -1331 
L 506 -1331 
L 506 -850 
L 844 -850 
Q 1081 -850 1212 -737 
Q 1344 -625 1503 -206 
L 1606 56 
L 191 3500 
L 800 3500 
L 1894 763 
L 2988 3500 
L 3597 3500 
L 2059 -325 
z
" transform="scale(0.015625)"/>
      </defs>
      <use xlink:href="#DejaVuSans-45"/>
      <use xlink:href="#DejaVuSans-6e" x="63.183594"/>
      <use xlink:href="#DejaVuSans-65" x="126.5625"/>
      <use xlink:href="#DejaVuSans-72" x="188.085938"/>
      <use xlink:href="#DejaVuSans-67" x="227.449219"/>
      <use xlink:href="#DejaVuSans-79" x="290.925781"/>
     </g>
    </g>
   </g>
   <g id="line2d_25">
    <path d="M 73.832727 53.568 
L 74.049164 53.568 
L 74.2656 54.190572 
L 74.373818 54.190572 
L 74.590255 54.812607 
L 74.698473 54.812607 
L 74.914909 55.434096 
L 75.023127 55.434096 
L 75.239564 56.05503 
L 75.347782 56.05503 
L 75.564218 56.675398 
L 75.672436 56.675398 
L 75.888873 57.295191 
L 75.997091 57.295191 
L 76.213527 57.9144 
L 76.321745 57.9144 
L 76.538182 58.533016 
L 76.6464 58.533016 
L 76.862836 59.151028 
L 76.971055 59.151028 
L 77.187491 59.768429 
L 77.295709 59.768429 
L 77.512145 60.385208 
L 77.620364 60.385208 
L 77.8368 61.001359 
L 77.945018 61.001359 
L 78.161455 61.61687 
L 78.269673 61.61687 
L 78.486109 62.231736 
L 78.594327 62.231736 
L 78.810764 62.845946 
L 78.918982 62.845946 
L 79.135418 63.459494 
L 79.243636 63.459494 
L 79.460073 64.072372 
L 79.568291 64.072372 
L 79.784727 64.684572 
L 79.892945 64.684572 
L 80.109382 65.296087 
L 80.2176 65.296087 
L 80.434036 65.90691 
L 80.542255 65.90691 
L 80.758691 66.517034 
L 80.866909 66.517034 
L 81.083345 67.126453 
L 81.191564 67.126453 
L 81.408 67.735161 
L 81.516218 67.735161 
L 81.732655 68.34315 
L 81.840873 68.34315 
L 82.057309 68.950417 
L 82.165527 68.950417 
L 82.381964 69.556954 
L 82.490182 69.556954 
L 82.706618 70.162757 
L 82.814836 70.162757 
L 83.031273 70.767821 
L 83.139491 70.767821 
L 83.355927 71.37214 
L 83.464145 71.37214 
L 83.680582 71.975711 
L 83.7888 71.975711 
L 84.005236 72.578528 
L 84.113455 72.578528 
L 84.329891 73.180587 
L 84.438109 73.180587 
L 84.654545 73.781885 
L 84.762764 73.781885 
L 84.9792 74.382417 
L 85.087418 74.382417 
L 85.303855 74.98218 
L 85.412073 74.98218 
L 85.628509 75.581171 
L 85.736727 75.581171 
L 85.953164 76.179386 
L 86.061382 76.179386 
L 86.277818 76.776822 
L 86.386036 76.776822 
L 86.602473 77.373475 
L 86.710691 77.373475 
L 86.927127 77.969344 
L 87.035345 77.969344 
L 87.251782 78.564424 
L 87.36 78.564424 
L 87.576436 79.158715 
L 87.684655 79.158715 
L 87.901091 79.752212 
L 88.009309 79.752212 
L 88.225745 80.344915 
L 88.333964 80.344915 
L 88.5504 80.936821 
L 88.658618 80.936821 
L 88.875055 81.527927 
L 88.983273 81.527927 
L 89.199709 82.118232 
L 89.307927 82.118232 
L 89.524364 82.707734 
L 89.632582 82.707734 
L 89.849018 83.296431 
L 89.957236 83.296431 
L 90.173673 83.884322 
L 90.281891 83.884322 
L 90.498327 84.471404 
L 90.606545 84.471404 
L 90.822982 85.057676 
L 90.9312 85.057676 
L 91.147636 85.643137 
L 91.255855 85.643137 
L 91.472291 86.227786 
L 91.580509 86.227786 
L 91.796945 86.811621 
L 91.905164 86.811621 
L 92.1216 87.39464 
L 92.229818 87.39464 
L 92.446255 87.976843 
L 92.554473 87.976843 
L 92.770909 88.558228 
L 92.879127 88.558228 
L 93.095564 89.138794 
L 93.203782 89.138794 
L 93.420218 89.71854 
L 93.528436 89.71854 
L 93.744873 90.297465 
L 93.853091 90.297465 
L 94.069527 90.875569 
L 94.177745 90.875569 
L 94.394182 91.452849 
L 94.5024 91.452849 
L 94.718836 92.029306 
L 94.827055 92.029306 
L 95.043491 92.604939 
L 95.151709 92.604939 
L 95.368145 93.179746 
L 95.476364 93.179746 
L 95.6928 93.753727 
L 95.801018 93.753727 
L 96.017455 94.32688 
L 96.125673 94.32688 
L 96.342109 94.899206 
L 96.450327 94.899206 
L 96.666764 95.470704 
L 96.774982 95.470704 
L 96.991418 96.041371 
L 97.099636 96.041371 
L 97.316073 96.611209 
L 97.424291 96.611209 
L 97.640727 97.180217 
L 97.748945 97.180217 
L 97.965382 97.748393 
L 98.0736 97.748393 
L 98.290036 98.315737 
L 98.398255 98.315737 
L 98.614691 98.882248 
L 98.722909 98.882248 
L 98.939345 99.447926 
L 99.047564 99.447926 
L 99.264 100.012771 
L 99.372218 100.012771 
L 99.588655 100.576781 
L 99.696873 100.576781 
L 99.913309 101.139956 
L 100.021527 101.139956 
L 100.237964 101.702295 
L 100.346182 101.702295 
L 100.562618 102.263799 
L 100.670836 102.263799 
L 100.887273 102.824465 
L 100.995491 102.824465 
L 101.211927 103.384295 
L 101.320145 103.384295 
L 101.536582 103.943286 
L 101.6448 103.943286 
L 101.861236 104.501439 
L 101.969455 104.501439 
L 102.185891 105.058753 
L 102.294109 105.058753 
L 102.510545 105.615229 
L 102.618764 105.615229 
L 102.8352 106.170865 
L 102.943418 106.170865 
L 103.159855 106.72566 
L 103.268073 106.72566 
L 103.484509 107.279615 
L 103.592727 107.279615 
L 103.809164 107.832729 
L 103.917382 107.832729 
L 104.133818 108.385001 
L 104.242036 108.385001 
L 104.458473 108.936431 
L 104.566691 108.936431 
L 104.783127 109.487018 
L 104.891345 109.487018 
L 105.107782 110.036763 
L 105.216 110.036763 
L 105.432436 110.585664 
L 105.540655 110.585664 
L 105.757091 111.133722 
L 105.865309 111.133722 
L 106.081745 111.680935 
L 106.189964 111.680935 
L 106.4064 112.227305 
L 106.514618 112.227305 
L 106.731055 112.772829 
L 106.839273 112.772829 
L 107.055709 113.317508 
L 107.163927 113.317508 
L 107.380364 113.861341 
L 107.488582 113.861341 
L 107.705018 114.404328 
L 107.813236 114.404328 
L 108.029673 114.946469 
L 108.137891 114.946469 
L 108.354327 115.487763 
L 108.462545 115.487763 
L 108.678982 116.02821 
L 108.7872 116.02821 
L 109.003636 116.56781 
L 109.111855 116.56781 
L 109.328291 117.106561 
L 109.436509 117.106561 
L 109.652945 117.644464 
L 109.761164 117.644464 
L 109.9776 118.181519 
L 110.085818 118.181519 
L 110.302255 118.717724 
L 110.410473 118.717724 
L 110.626909 119.25308 
L 110.735127 119.25308 
L 110.951564 119.787587 
L 111.059782 119.787587 
L 111.276218 120.321244 
L 111.384436 120.321244 
L 111.600873 120.85405 
L 111.709091 120.85405 
L 111.925527 121.386006 
L 112.033745 121.386006 
L 112.250182 121.917111 
L 112.3584 121.917111 
L 112.574836 122.447364 
L 112.683055 122.447364 
L 112.899491 122.976766 
L 113.007709 122.976766 
L 113.224145 123.505317 
L 113.332364 123.505317 
L 113.5488 124.033015 
L 113.657018 124.033015 
L 113.873455 124.55986 
L 113.981673 124.55986 
L 114.198109 125.085853 
L 114.306327 125.085853 
L 114.522764 125.610992 
L 114.630982 125.610992 
L 114.847418 126.135278 
L 114.955636 126.135278 
L 115.172073 126.65871 
L 115.280291 126.65871 
L 115.496727 127.181288 
L 115.604945 127.181288 
L 115.821382 127.703012 
L 115.9296 127.703012 
L 116.146036 128.22388 
L 116.254255 128.22388 
L 116.470691 128.743895 
L 116.578909 128.743895 
L 116.795345 129.263054 
L 116.903564 129.263054 
L 117.12 129.781358 
L 117.228218 129.781358 
L 117.444655 130.298807 
L 117.552873 130.298807 
L 117.769309 130.8154 
L 117.877527 130.8154 
L 118.093964 131.331138 
L 118.202182 131.331138 
L 118.418618 131.846019 
L 118.526836 131.846019 
L 118.743273 132.360043 
L 118.851491 132.360043 
L 119.067927 132.873211 
L 119.176145 132.873211 
L 119.392582 133.385521 
L 119.5008 133.385521 
L 119.717236 133.896975 
L 119.825455 133.896975 
L 120.041891 134.407571 
L 120.150109 134.407571 
L 120.366545 134.917309 
L 120.474764 134.917309 
L 120.6912 135.426189 
L 120.799418 135.426189 
L 121.015855 135.934211 
L 121.124073 135.934211 
L 121.340509 136.441375 
L 121.448727 136.441375 
L 121.665164 136.947681 
L 121.773382 136.947681 
L 121.989818 137.453127 
L 122.098036 137.453127 
L 122.314473 137.957715 
L 122.422691 137.957715 
L 122.639127 138.461444 
L 122.747345 138.461444 
L 122.963782 138.964313 
L 123.072 138.964313 
L 123.288436 139.466323 
L 123.396655 139.466323 
L 123.613091 139.967474 
L 123.721309 139.967474 
L 123.937745 140.467764 
L 124.045964 140.467764 
L 124.2624 140.967194 
L 124.370618 140.967194 
L 124.587055 141.465764 
L 124.695273 141.465764 
L 124.911709 141.963473 
L 125.019927 141.963473 
L 125.236364 142.460321 
L 125.344582 142.460321 
L 125.561018 142.956309 
L 125.669236 142.956309 
L 125.885673 143.451435 
L 125.993891 143.451435 
L 126.210327 143.9457 
L 126.318545 143.9457 
L 126.534982 144.439103 
L 126.6432 144.439103 
L 126.859636 144.931645 
L 126.967855 144.931645 
L 127.184291 145.423326 
L 127.292509 145.423326 
L 127.508945 145.914144 
L 127.617164 145.914144 
L 127.8336 146.404101 
L 127.941818 146.404101 
L 128.158255 146.893195 
L 128.266473 146.893195 
L 128.482909 147.381427 
L 128.591127 147.381427 
L 128.807564 147.868797 
L 128.915782 147.868797 
L 129.132218 148.355304 
L 129.240436 148.355304 
L 129.456873 148.840949 
L 129.565091 148.840949 
L 129.781527 149.32573 
L 129.889745 149.32573 
L 130.106182 149.809649 
L 130.2144 149.809649 
L 130.430836 150.292705 
L 130.539055 150.292705 
L 130.755491 150.774898 
L 130.863709 150.774898 
L 131.080145 151.256227 
L 131.188364 151.256227 
L 131.4048 151.736693 
L 131.513018 151.736693 
L 131.729455 152.216295 
L 131.837673 152.216295 
L 132.054109 152.695033 
L 132.162327 152.695033 
L 132.378764 153.172908 
L 132.486982 153.172908 
L 132.703418 153.649918 
L 132.811636 153.649918 
L 133.028073 154.126065 
L 133.136291 154.126065 
L 133.352727 154.601347 
L 133.460945 154.601347 
L 133.677382 155.075765 
L 133.7856 155.075765 
L 134.002036 155.549319 
L 134.110255 155.549319 
L 134.326691 156.022007 
L 134.434909 156.022007 
L 134.651345 156.493831 
L 134.759564 156.493831 
L 134.976 156.964791 
L 135.084218 156.964791 
L 135.300655 157.434886 
L 135.408873 157.434886 
L 135.625309 157.904115 
L 135.733527 157.904115 
L 135.949964 158.37248 
L 136.058182 158.37248 
L 136.274618 158.83998 
L 136.382836 158.83998 
L 136.599273 159.306615 
L 136.707491 159.306615 
L 136.923927 159.772385 
L 137.032145 159.772385 
L 137.248582 160.237289 
L 137.3568 160.237289 
L 137.573236 160.701328 
L 137.681455 160.701328 
L 137.897891 161.164501 
L 138.006109 161.164501 
L 138.222545 161.626809 
L 138.330764 161.626809 
L 138.5472 162.088252 
L 138.655418 162.088252 
L 138.871855 162.548829 
L 138.980073 162.548829 
L 139.196509 163.00854 
L 139.304727 163.00854 
L 139.521164 163.467385 
L 139.629382 163.467385 
L 139.845818 163.925364 
L 139.954036 163.925364 
L 140.170473 164.382477 
L 140.278691 164.382477 
L 140.495127 164.838725 
L 140.603345 164.838725 
L 140.819782 165.294106 
L 140.928 165.294106 
L 141.144436 165.748621 
L 141.252655 165.748621 
L 141.469091 166.20227 
L 141.577309 166.20227 
L 141.793745 166.655053 
L 141.901964 166.655053 
L 142.1184 167.106969 
L 142.226618 167.106969 
L 142.443055 167.558019 
L 142.551273 167.558019 
L 142.767709 168.008203 
L 142.875927 168.008203 
L 143.092364 168.457521 
L 143.200582 168.457521 
L 143.417018 168.905972 
L 143.525236 168.905972 
L 143.741673 169.353557 
L 143.849891 169.353557 
L 144.066327 169.800276 
L 144.174545 169.800276 
L 144.390982 170.246128 
L 144.4992 170.246128 
L 144.715636 170.691114 
L 144.823855 170.691114 
L 145.040291 171.135233 
L 145.148509 171.135233 
L 145.364945 171.578485 
L 145.473164 171.578485 
L 145.6896 172.020871 
L 145.797818 172.020871 
L 146.014255 172.462391 
L 146.122473 172.462391 
L 146.338909 172.903044 
L 146.447127 172.903044 
L 146.663564 173.34283 
L 146.771782 173.34283 
L 146.988218 173.78175 
L 147.096436 173.78175 
L 147.312873 174.219803 
L 147.421091 174.219803 
L 147.637527 174.65699 
L 147.745745 174.65699 
L 147.962182 175.09331 
L 148.0704 175.09331 
L 148.286836 175.528763 
L 148.395055 175.528763 
L 148.611491 175.96335 
L 148.719709 175.96335 
L 148.936145 176.397071 
L 149.044364 176.397071 
L 149.2608 176.829924 
L 149.369018 176.829924 
L 149.585455 177.261911 
L 149.693673 177.261911 
L 149.910109 177.693032 
L 150.018327 177.693032 
L 150.234764 178.123287 
L 150.342982 178.123287 
L 150.559418 178.552675 
L 150.667636 178.552675 
L 150.884073 178.981196 
L 150.992291 178.981196 
L 151.208727 179.40885 
L 151.316945 179.40885 
L 151.533382 179.835638 
L 151.6416 179.835638 
L 151.858036 180.26156 
L 151.966255 180.26156 
L 152.182691 180.686615 
L 152.290909 180.686615 
L 152.507345 181.110804 
L 152.615564 181.110804 
L 152.832 181.534126 
L 152.940218 181.534126 
L 153.156655 181.956582 
L 153.264873 181.956582 
L 153.481309 182.378173 
L 153.589527 182.378173 
L 153.805964 182.798896 
L 153.914182 182.798896 
L 154.130618 183.218754 
L 154.238836 183.218754 
L 154.455273 183.637745 
L 154.563491 183.637745 
L 154.779927 184.055869 
L 154.888145 184.055869 
L 155.104582 184.473128 
L 155.2128 184.473128 
L 155.429236 184.889521 
L 155.537455 184.889521 
L 155.753891 185.305048 
L 155.862109 185.305048 
L 156.078545 185.719709 
L 156.186764 185.719709 
L 156.4032 186.133504 
L 156.511418 186.133504 
L 156.727855 186.546433 
L 156.836073 186.546433 
L 157.052509 186.958497 
L 157.160727 186.958497 
L 157.377164 187.369695 
L 157.485382 187.369695 
L 157.701818 187.780027 
L 157.810036 187.780027 
L 158.026473 188.189493 
L 158.134691 188.189493 
L 158.351127 188.598094 
L 158.459345 188.598094 
L 158.675782 189.005829 
L 158.784 189.005829 
L 159.000436 189.412699 
L 159.108655 189.412699 
L 159.325091 189.818704 
L 159.433309 189.818704 
L 159.649745 190.223843 
L 159.757964 190.223843 
L 159.9744 190.628117 
L 160.082618 190.628117 
L 160.299055 191.031527 
L 160.407273 191.031527 
L 160.623709 191.434071 
L 160.731927 191.434071 
L 160.948364 191.835751 
L 161.056582 191.835751 
L 161.273018 192.236565 
L 161.381236 192.236565 
L 161.597673 192.636515 
L 161.705891 192.636515 
L 161.922327 193.0356 
L 162.030545 193.0356 
L 162.246982 193.43382 
L 162.3552 193.43382 
L 162.571636 193.831176 
L 162.679855 193.831176 
L 162.896291 194.227668 
L 163.004509 194.227668 
L 163.220945 194.623294 
L 163.329164 194.623294 
L 163.5456 195.018057 
L 163.653818 195.018057 
L 163.870255 195.411955 
L 163.978473 195.411955 
L 164.194909 195.80499 
L 164.303127 195.80499 
L 164.519564 196.19716 
L 164.627782 196.19716 
L 164.844218 196.588467 
L 164.952436 196.588467 
L 165.168873 196.978909 
L 165.277091 196.978909 
L 165.493527 197.368488 
L 165.601745 197.368488 
L 165.818182 197.757203 
L 165.9264 197.757203 
L 166.142836 198.145055 
L 166.251055 198.145055 
L 166.467491 198.532044 
L 166.575709 198.532044 
L 166.792145 198.918169 
L 166.900364 198.918169 
L 167.1168 199.303431 
L 167.225018 199.303431 
L 167.441455 199.68783 
L 167.549673 199.68783 
L 167.766109 200.071367 
L 167.874327 200.071367 
L 168.090764 200.45404 
L 168.198982 200.45404 
L 168.415418 200.835851 
L 168.523636 200.835851 
L 168.740073 201.216799 
L 168.848291 201.216799 
L 169.064727 201.596885 
L 169.172945 201.596885 
L 169.389382 201.976109 
L 169.4976 201.976109 
L 169.714036 202.354471 
L 169.822255 202.354471 
L 170.038691 202.731971 
L 170.146909 202.731971 
L 170.363345 203.108609 
L 170.471564 203.108609 
L 170.688 203.484386 
L 170.796218 203.484386 
L 171.012655 203.859301 
L 171.120873 203.859301 
L 171.337309 204.233355 
L 171.445527 204.233355 
L 171.661964 204.606547 
L 171.770182 204.606547 
L 171.986618 204.978879 
L 172.094836 204.978879 
L 172.311273 205.35035 
L 172.419491 205.35035 
L 172.635927 205.72096 
L 172.744145 205.72096 
L 172.960582 206.090709 
L 173.0688 206.090709 
L 173.285236 206.459598 
L 173.393455 206.459598 
L 173.609891 206.827627 
L 173.718109 206.827627 
L 173.934545 207.194795 
L 174.042764 207.194795 
L 174.2592 207.561104 
L 174.367418 207.561104 
L 174.583855 207.926552 
L 174.692073 207.926552 
L 174.908509 208.291141 
L 175.016727 208.291141 
L 175.233164 208.654869 
L 175.341382 208.654869 
L 175.557818 209.017738 
L 175.666036 209.017738 
L 175.882473 209.379748 
L 175.990691 209.379748 
L 176.207127 209.740899 
L 176.315345 209.740899 
L 176.531782 210.101191 
L 176.64 210.101191 
L 176.856436 210.460624 
L 176.964655 210.460624 
L 177.181091 210.819199 
L 177.289309 210.819199 
L 177.505745 211.176916 
L 177.613964 211.176916 
L 177.8304 211.533775 
L 177.938618 211.533775 
L 178.155055 211.889775 
L 178.263273 211.889775 
L 178.479709 212.244919 
L 178.587927 212.244919 
L 178.804364 212.599204 
L 178.912582 212.599204 
L 179.129018 212.952633 
L 179.237236 212.952633 
L 179.453673 213.305204 
L 179.561891 213.305204 
L 179.778327 213.656919 
L 179.886545 213.656919 
L 180.102982 214.007776 
L 180.2112 214.007776 
L 180.427636 214.357777 
L 180.535855 214.357777 
L 180.752291 214.706922 
L 180.860509 214.706922 
L 181.076945 215.05521 
L 181.185164 215.05521 
L 181.4016 215.402643 
L 181.509818 215.402643 
L 181.726255 215.749219 
L 181.834473 215.749219 
L 182.050909 216.094941 
L 182.159127 216.094941 
L 182.375564 216.439807 
L 182.483782 216.439807 
L 182.700218 216.783818 
L 182.808436 216.783818 
L 183.024873 217.126974 
L 183.133091 217.126974 
L 183.349527 217.469275 
L 183.457745 217.469275 
L 183.674182 217.810723 
L 183.7824 217.810723 
L 183.998836 218.151315 
L 184.107055 218.151315 
L 184.323491 218.491054 
L 184.431709 218.491054 
L 184.648145 218.829939 
L 184.756364 218.829939 
L 184.9728 219.167971 
L 185.081018 219.167971 
L 185.297455 219.50515 
L 185.405673 219.50515 
L 185.622109 219.841475 
L 185.730327 219.841475 
L 185.946764 220.176948 
L 186.054982 220.176948 
L 186.271418 220.511568 
L 186.379636 220.511568 
L 186.596073 220.845336 
L 186.704291 220.845336 
L 186.920727 221.178252 
L 187.028945 221.178252 
L 187.245382 221.510316 
L 187.3536 221.510316 
L 187.570036 221.841528 
L 187.678255 221.841528 
L 187.894691 222.171889 
L 188.002909 222.171889 
L 188.219345 222.501399 
L 188.327564 222.501399 
L 188.544 222.830058 
L 188.652218 222.830058 
L 188.868655 223.157867 
L 188.976873 223.157867 
L 189.193309 223.484825 
L 189.301527 223.484825 
L 189.517964 223.810933 
L 189.626182 223.810933 
L 189.842618 224.136192 
L 189.950836 224.136192 
L 190.167273 224.460601 
L 190.275491 224.460601 
L 190.491927 224.78416 
L 190.600145 224.78416 
L 190.816582 225.106871 
L 190.9248 225.106871 
L 191.141236 225.428733 
L 191.249455 225.428733 
L 191.465891 225.749746 
L 191.574109 225.749746 
L 191.790545 226.069912 
L 191.898764 226.069912 
L 192.1152 226.389229 
L 192.223418 226.389229 
L 192.439855 226.7077 
L 192.548073 226.7077 
L 192.764509 227.025323 
L 192.872727 227.025323 
L 193.089164 227.342099 
L 193.197382 227.342099 
L 193.413818 227.658028 
L 193.522036 227.658028 
L 193.738473 227.973111 
L 193.846691 227.973111 
L 194.063127 228.287348 
L 194.171345 228.287348 
L 194.387782 228.600739 
L 194.496 228.600739 
L 194.712436 228.913285 
L 194.820655 228.913285 
L 195.037091 229.224986 
L 195.145309 229.224986 
L 195.361745 229.535842 
L 195.469964 229.535842 
L 195.6864 229.845853 
L 195.794618 229.845853 
L 196.011055 230.15502 
L 196.119273 230.15502 
L 196.335709 230.463342 
L 196.443927 230.463342 
L 196.660364 230.770821 
L 196.768582 230.770821 
L 196.985018 231.077457 
L 197.093236 231.077457 
L 197.309673 231.38325 
L 197.417891 231.38325 
L 197.634327 231.6882 
L 197.742545 231.6882 
L 197.958982 231.992307 
L 198.0672 231.992307 
L 198.283636 232.295573 
L 198.391855 232.295573 
L 198.608291 232.597997 
L 198.716509 232.597997 
L 198.932945 232.899579 
L 199.041164 232.899579 
L 199.2576 233.20032 
L 199.365818 233.20032 
L 199.582255 233.500221 
L 199.690473 233.500221 
L 199.906909 233.799281 
L 200.015127 233.799281 
L 200.231564 234.097502 
L 200.339782 234.097502 
L 200.556218 234.394882 
L 200.664436 234.394882 
L 200.880873 234.691423 
L 200.989091 234.691423 
L 201.205527 234.987125 
L 201.313745 234.987125 
L 201.530182 235.281989 
L 201.6384 235.281989 
L 201.854836 235.576013 
L 201.963055 235.576013 
L 202.179491 235.8692 
L 202.287709 235.8692 
L 202.504145 236.161549 
L 202.612364 236.161549 
L 202.8288 236.453061 
L 202.937018 236.453061 
L 203.153455 236.743737 
L 203.261673 236.743737 
L 203.478109 237.033577 
L 203.586327 237.033577 
L 203.802764 237.32258 
L 203.910982 237.32258 
L 204.127418 237.610747 
L 204.235636 237.610747 
L 204.452073 237.89808 
L 204.560291 237.89808 
L 204.776727 238.184577 
L 204.884945 238.184577 
L 205.101382 238.470239 
L 205.2096 238.470239 
L 205.426036 238.755068 
L 205.534255 238.755068 
L 205.750691 239.039062 
L 205.858909 239.039062 
L 206.075345 239.322223 
L 206.183564 239.322223 
L 206.4 239.604551 
L 206.508218 239.604551 
L 206.724655 239.886046 
L 206.832873 239.886046 
L 207.049309 240.166708 
L 207.157527 240.166708 
L 207.373964 240.446539 
L 207.482182 240.446539 
L 207.698618 240.725538 
L 207.806836 240.725538 
L 208.023273 241.003706 
L 208.131491 241.003706 
L 208.347927 241.281044 
L 208.456145 241.281044 
L 208.672582 241.557551 
L 208.7808 241.557551 
L 208.997236 241.833228 
L 209.105455 241.833228 
L 209.321891 242.108077 
L 209.430109 242.108077 
L 209.646545 242.382096 
L 209.754764 242.382096 
L 209.9712 242.655287 
L 210.079418 242.655287 
L 210.295855 242.92765 
L 210.404073 242.92765 
L 210.620509 243.199186 
L 210.728727 243.199186 
L 210.945164 243.469894 
L 211.053382 243.469894 
L 211.269818 243.739776 
L 211.378036 243.739776 
L 211.594473 244.008831 
L 211.702691 244.008831 
L 211.919127 244.277061 
L 212.027345 244.277061 
L 212.243782 244.544466 
L 212.352 244.544466 
L 212.568436 244.811045 
L 212.676655 244.811045 
L 212.893091 245.0768 
L 213.001309 245.0768 
L 213.217745 245.34173 
L 213.325964 245.34173 
L 213.5424 245.605837 
L 213.650618 245.605837 
L 213.867055 245.869121 
L 213.975273 245.869121 
L 214.191709 246.131583 
L 214.299927 246.131583 
L 214.516364 246.393222 
L 214.624582 246.393222 
L 214.841018 246.654039 
L 214.949236 246.654039 
L 215.165673 246.914035 
L 215.273891 246.914035 
L 215.490327 247.17321 
L 215.598545 247.17321 
L 215.814982 247.431565 
L 215.9232 247.431565 
L 216.139636 247.6891 
L 216.247855 247.6891 
L 216.464291 247.945816 
L 216.572509 247.945816 
L 216.788945 248.201713 
L 216.897164 248.201713 
L 217.1136 248.456791 
L 217.221818 248.456791 
L 217.438255 248.711052 
L 217.546473 248.711052 
L 217.762909 248.964496 
L 217.871127 248.964496 
L 218.087564 249.217123 
L 218.195782 249.217123 
L 218.412218 249.468933 
L 218.520436 249.468933 
L 218.736873 249.719928 
L 218.845091 249.719928 
L 219.061527 249.970107 
L 219.169745 249.970107 
L 219.386182 250.219471 
L 219.4944 250.219471 
L 219.710836 250.468021 
L 219.819055 250.468021 
L 220.035491 250.715757 
L 220.143709 250.715757 
L 220.360145 250.96268 
L 220.468364 250.96268 
L 220.6848 251.20879 
L 220.793018 251.20879 
L 221.009455 251.454088 
L 221.117673 251.454088 
L 221.334109 251.698574 
L 221.442327 251.698574 
L 221.658764 251.942248 
L 221.766982 251.942248 
L 221.983418 252.185112 
L 222.091636 252.185112 
L 222.308073 252.427166 
L 222.416291 252.427166 
L 222.632727 252.66841 
L 222.740945 252.66841 
L 222.957382 252.908846 
L 223.0656 252.908846 
L 223.282036 253.148473 
L 223.390255 253.148473 
L 223.606691 253.387293 
L 223.714909 253.387293 
L 223.931345 253.625304 
L 224.039564 253.625304 
L 224.256 253.86251 
L 224.364218 253.86251 
L 224.580655 254.098909 
L 224.688873 254.098909 
L 224.905309 254.334502 
L 225.013527 254.334502 
L 225.229964 254.569291 
L 225.338182 254.569291 
L 225.554618 254.803275 
L 225.662836 254.803275 
L 225.879273 255.036455 
L 225.987491 255.036455 
L 226.203927 255.268832 
L 226.312145 255.268832 
L 226.528582 255.500407 
L 226.6368 255.500407 
L 226.853236 255.731179 
L 226.961455 255.731179 
L 227.177891 255.961149 
L 227.286109 255.961149 
L 227.502545 256.190319 
L 227.610764 256.190319 
L 227.8272 256.418689 
L 227.935418 256.418689 
L 228.151855 256.646258 
L 228.260073 256.646258 
L 228.476509 256.873029 
L 228.584727 256.873029 
L 228.801164 257.099 
L 228.909382 257.099 
L 229.125818 257.324174 
L 229.234036 257.324174 
L 229.450473 257.548551 
L 229.558691 257.548551 
L 229.775127 257.772131 
L 229.883345 257.772131 
L 230.099782 257.994915 
L 230.208 257.994915 
L 230.424436 258.216903 
L 230.532655 258.216903 
L 230.749091 258.438097 
L 230.857309 258.438097 
L 231.073745 258.658497 
L 231.181964 258.658497 
L 231.3984 258.878103 
L 231.506618 258.878103 
L 231.723055 259.096917 
L 231.831273 259.096917 
L 232.047709 259.314939 
L 232.155927 259.314939 
L 232.372364 259.532169 
L 232.480582 259.532169 
L 232.697018 259.748608 
L 232.805236 259.748608 
L 233.021673 259.964257 
L 233.129891 259.964257 
L 233.346327 260.179116 
L 233.454545 260.179116 
L 233.670982 260.393186 
L 233.7792 260.393186 
L 233.995636 260.606468 
L 234.103855 260.606468 
L 234.320291 260.818963 
L 234.428509 260.818963 
L 234.644945 261.03067 
L 234.753164 261.03067 
L 234.9696 261.241591 
L 235.077818 261.241591 
L 235.294255 261.451727 
L 235.402473 261.451727 
L 235.618909 261.661078 
L 235.727127 261.661078 
L 235.943564 261.869645 
L 236.051782 261.869645 
L 236.268218 262.077428 
L 236.376436 262.077428 
L 236.592873 262.284429 
L 236.701091 262.284429 
L 236.917527 262.490647 
L 237.025745 262.490647 
L 237.242182 262.696085 
L 237.3504 262.696085 
L 237.566836 262.900742 
L 237.675055 262.900742 
L 237.891491 263.104619 
L 237.999709 263.104619 
L 238.216145 263.307718 
L 238.324364 263.307718 
L 238.5408 263.510038 
L 238.649018 263.510038 
L 238.865455 263.71158 
L 238.973673 263.71158 
L 239.190109 263.912346 
L 239.298327 263.912346 
L 239.514764 264.112335 
L 239.622982 264.112335 
L 239.839418 264.311549 
L 239.947636 264.311549 
L 240.164073 264.509988 
L 240.272291 264.509988 
L 240.488727 264.707653 
L 240.596945 264.707653 
L 240.813382 264.904546 
L 240.9216 264.904546 
L 241.138036 265.100666 
L 241.246255 265.100666 
L 241.462691 265.296014 
L 241.570909 265.296014 
L 241.787345 265.49059 
L 241.895564 265.49059 
L 242.112 265.684397 
L 242.220218 265.684397 
L 242.436655 265.877435 
L 242.544873 265.877435 
L 242.761309 266.069704 
L 242.869527 266.069704 
L 243.085964 266.261205 
L 243.194182 266.261205 
L 243.410618 266.45194 
L 243.518836 266.45194 
L 243.735273 266.641908 
L 243.843491 266.641908 
L 244.059927 266.831111 
L 244.168145 266.831111 
L 244.384582 267.019549 
L 244.4928 267.019549 
L 244.709236 267.207223 
L 244.817455 267.207223 
L 245.033891 267.394135 
L 245.142109 267.394135 
L 245.358545 267.580284 
L 245.466764 267.580284 
L 245.6832 267.765671 
L 245.791418 267.765671 
L 246.007855 267.950298 
L 246.116073 267.950298 
L 246.332509 268.134166 
L 246.440727 268.134166 
L 246.657164 268.317274 
L 246.765382 268.317274 
L 246.981818 268.499625 
L 247.090036 268.499625 
L 247.306473 268.681218 
L 247.414691 268.681218 
L 247.631127 268.862055 
L 247.739345 268.862055 
L 247.955782 269.042136 
L 248.064 269.042136 
L 248.280436 269.221463 
L 248.388655 269.221463 
L 248.605091 269.400036 
L 248.713309 269.400036 
L 248.929745 269.577856 
L 249.037964 269.577856 
L 249.2544 269.754924 
L 249.362618 269.754924 
L 249.579055 269.93124 
L 249.687273 269.93124 
L 249.903709 270.106807 
L 250.011927 270.106807 
L 250.228364 270.281624 
L 250.336582 270.281624 
L 250.553018 270.455692 
L 250.661236 270.455692 
L 250.877673 270.629013 
L 250.985891 270.629013 
L 251.202327 270.801587 
L 251.310545 270.801587 
L 251.526982 270.973416 
L 251.6352 270.973416 
L 251.851636 271.144499 
L 251.959855 271.144499 
L 252.176291 271.314838 
L 252.284509 271.314838 
L 252.500945 271.484434 
L 252.609164 271.484434 
L 252.8256 271.653288 
L 252.933818 271.653288 
L 253.150255 271.821401 
L 253.258473 271.821401 
L 253.474909 271.988774 
L 253.583127 271.988774 
L 253.799564 272.155407 
L 253.907782 272.155407 
L 254.124218 272.321301 
L 254.232436 272.321301 
L 254.448873 272.486459 
L 254.557091 272.486459 
L 254.773527 272.650879 
L 254.881745 272.650879 
L 255.098182 272.814564 
L 255.2064 272.814564 
L 255.422836 272.977515 
L 255.531055 272.977515 
L 255.747491 273.139731 
L 255.855709 273.139731 
L 256.072145 273.301215 
L 256.180364 273.301215 
L 256.3968 273.461967 
L 256.505018 273.461967 
L 256.721455 273.621988 
L 256.829673 273.621988 
L 257.046109 273.78128 
L 257.154327 273.78128 
L 257.370764 273.939843 
L 257.478982 273.939843 
L 257.695418 274.097678 
L 257.803636 274.097678 
L 258.020073 274.254786 
L 258.128291 274.254786 
L 258.344727 274.411168 
L 258.452945 274.411168 
L 258.669382 274.566826 
L 258.7776 274.566826 
L 258.994036 274.721759 
L 259.102255 274.721759 
L 259.318691 274.87597 
L 259.426909 274.87597 
L 259.643345 275.029459 
L 259.751564 275.029459 
L 259.968 275.182226 
L 260.076218 275.182226 
L 260.292655 275.334275 
L 260.400873 275.334275 
L 260.617309 275.485604 
L 260.725527 275.485604 
L 260.941964 275.636216 
L 261.050182 275.636216 
L 261.266618 275.786111 
L 261.374836 275.786111 
L 261.591273 275.935291 
L 261.699491 275.935291 
L 261.915927 276.083756 
L 262.024145 276.083756 
L 262.240582 276.231507 
L 262.3488 276.231507 
L 262.565236 276.378547 
L 262.673455 276.378547 
L 262.889891 276.524874 
L 262.998109 276.524874 
L 263.214545 276.670492 
L 263.322764 276.670492 
L 263.5392 276.815401 
L 263.647418 276.815401 
L 263.863855 276.959601 
L 263.972073 276.959601 
L 264.188509 277.103095 
L 264.296727 277.103095 
L 264.513164 277.245882 
L 264.621382 277.245882 
L 264.837818 277.387964 
L 264.946036 277.387964 
L 265.162473 277.529343 
L 265.270691 277.529343 
L 265.487127 277.670019 
L 265.595345 277.670019 
L 265.811782 277.809994 
L 265.92 277.809994 
L 266.136436 277.949268 
L 266.244655 277.949268 
L 266.461091 278.087843 
L 266.569309 278.087843 
L 266.785745 278.22572 
L 266.893964 278.22572 
L 267.1104 278.3629 
L 267.218618 278.3629 
L 267.435055 278.499384 
L 267.543273 278.499384 
L 267.759709 278.635173 
L 267.867927 278.635173 
L 268.084364 278.770269 
L 268.192582 278.770269 
L 268.409018 278.904673 
L 268.517236 278.904673 
L 268.733673 279.038385 
L 268.841891 279.038385 
L 269.058327 279.171407 
L 269.166545 279.171407 
L 269.382982 279.30374 
L 269.4912 279.30374 
L 269.707636 279.435385 
L 269.815855 279.435385 
L 270.032291 279.566344 
L 270.140509 279.566344 
L 270.356945 279.696618 
L 270.465164 279.696618 
L 270.6816 279.826208 
L 270.789818 279.826208 
L 271.006255 279.955115 
L 271.114473 279.955115 
L 271.330909 280.083341 
L 271.439127 280.083341 
L 271.655564 280.210886 
L 271.763782 280.210886 
L 271.980218 280.337752 
L 272.088436 280.337752 
L 272.304873 280.463941 
L 272.413091 280.463941 
L 272.629527 280.589453 
L 272.737745 280.589453 
L 272.954182 280.714289 
L 273.0624 280.714289 
L 273.278836 280.838451 
L 273.387055 280.838451 
L 273.603491 280.961941 
L 273.711709 280.961941 
L 273.928145 281.084758 
L 274.036364 281.084758 
L 274.2528 281.206906 
L 274.361018 281.206906 
L 274.577455 281.328384 
L 274.685673 281.328384 
L 274.902109 281.449194 
L 275.010327 281.449194 
L 275.226764 281.569338 
L 275.334982 281.569338 
L 275.551418 281.688816 
L 275.659636 281.688816 
L 275.876073 281.80763 
L 275.984291 281.80763 
L 276.200727 281.925782 
L 276.308945 281.925782 
L 276.525382 282.043272 
L 276.6336 282.043272 
L 276.850036 282.160103 
L 276.958255 282.160103 
L 277.174691 282.276274 
L 277.282909 282.276274 
L 277.499345 282.391788 
L 277.607564 282.391788 
L 277.824 282.506646 
L 277.932218 282.506646 
L 278.148655 282.62085 
L 278.256873 282.62085 
L 278.473309 282.734399 
L 278.581527 282.734399 
L 278.797964 282.847296 
L 278.906182 282.847296 
L 279.122618 282.959542 
L 279.230836 282.959542 
L 279.447273 283.071139 
L 279.880145 283.182088 
L 280.096582 283.292391 
L 280.529455 283.402048 
L 280.745891 283.511062 
L 281.178764 283.619433 
L 281.3952 283.727162 
L 281.828073 283.834252 
L 282.044509 283.940704 
L 282.477382 284.046518 
L 282.693818 284.151697 
L 283.126691 284.256242 
L 283.343127 284.360154 
L 283.776 284.463436 
L 283.992436 284.566087 
L 284.425309 284.66811 
L 284.641745 284.769506 
L 285.074618 284.870276 
L 285.291055 284.970423 
L 285.723927 285.069948 
L 285.940364 285.168851 
L 286.373236 285.267135 
L 286.589673 285.364801 
L 287.022545 285.461851 
L 287.238982 285.558287 
L 287.671855 285.654108 
L 287.888291 285.749318 
L 288.321164 285.843918 
L 288.5376 285.937908 
L 288.970473 286.031292 
L 289.186909 286.124069 
L 289.619782 286.216243 
L 289.836218 286.307813 
L 290.269091 286.398783 
L 290.485527 286.489153 
L 290.9184 286.578924 
L 291.134836 286.6681 
L 291.567709 286.756681 
L 291.784145 286.844668 
L 292.217018 286.932064 
L 292.433455 287.01887 
L 292.866327 287.105088 
L 293.082764 287.190719 
L 293.515636 287.275764 
L 293.732073 287.360226 
L 294.164945 287.444106 
L 294.381382 287.527406 
L 294.814255 287.610128 
L 295.030691 287.692272 
L 295.463564 287.773841 
L 295.68 287.854837 
L 296.112873 287.935261 
L 296.329309 288.015115 
L 296.762182 288.0944 
L 296.978618 288.173119 
L 297.411491 288.251272 
L 297.627927 288.328863 
L 298.0608 288.405891 
L 298.277236 288.48236 
L 298.710109 288.558271 
L 298.926545 288.633625 
L 299.359418 288.708425 
L 299.575855 288.782671 
L 300.008727 288.856366 
L 300.225164 288.929512 
L 300.658036 289.002111 
L 300.874473 289.074163 
L 301.307345 289.145672 
L 301.523782 289.216638 
L 301.956655 289.287064 
L 302.173091 289.356952 
L 302.605964 289.426302 
L 302.8224 289.495118 
L 303.255273 289.5634 
L 303.471709 289.631151 
L 303.904582 289.698372 
L 304.121018 289.765066 
L 304.553891 289.831233 
L 304.770327 289.896878 
L 305.2032 289.962 
L 305.527855 290.026602 
L 305.960727 290.154253 
L 306.501818 290.217305 
L 306.934691 290.341874 
L 307.475782 290.403394 
L 307.908655 290.524916 
L 308.449745 290.584921 
L 308.882618 290.70343 
L 309.423709 290.761937 
L 309.856582 290.877468 
L 310.397673 290.934495 
L 310.830545 291.047084 
L 311.696291 291.15773 
L 312.129164 291.266451 
L 312.994909 291.373262 
L 313.427782 291.478179 
L 314.293527 291.581219 
L 314.7264 291.682399 
L 315.592145 291.781735 
L 316.025018 291.879243 
L 316.890764 291.97494 
L 317.323636 292.068843 
L 318.189382 292.160969 
L 318.622255 292.251334 
L 319.488 292.339955 
L 319.920873 292.42685 
L 320.786618 292.512035 
L 321.219491 292.595528 
L 322.085236 292.677347 
L 322.518109 292.757509 
L 323.383855 292.836031 
L 323.924945 292.912931 
L 324.682473 292.988226 
L 325.223564 293.061935 
L 326.305745 293.169562 
L 326.846836 293.239383 
L 327.929018 293.341263 
L 328.470109 293.407307 
L 329.552291 293.503607 
L 330.093382 293.565988 
L 331.175564 293.65688 
L 331.716655 293.715714 
L 332.798836 293.801369 
L 333.556364 293.883966 
L 335.071418 293.989444 
L 335.828945 294.065146 
L 337.344 294.161661 
L 338.101527 294.230813 
L 339.941236 294.340092 
L 340.806982 294.402176 
L 342.538473 294.500052 
L 343.404218 294.555519 
L 345.460364 294.659417 
L 346.542545 294.723672 
L 349.031564 294.826975 
L 350.221964 294.881033 
L 353.252073 294.990326 
L 354.767127 295.04413 
L 358.7712 295.155036 
L 360.935564 295.208974 
L 366.887564 295.316854 
L 370.350545 295.364514 
L 388.964073 295.475151 
L 398.487273 295.488 
L 398.487273 295.488 
" clip-path="url(#p1271d0381a)" style="fill: none; stroke: #1f77b4; stroke-width: 2; stroke-linecap: square"/>
   </g>
   <g id="line2d_26">
    <path d="M 57.6 302.560212 
L 414.72 302.560212 
" clip-path="url(#p1271d0381a)" style="fill: none; stroke-dasharray: 7.4,3.2; stroke-dashoffset: 0; stroke: #1f77b4; stroke-width: 2"/>
   </g>
   <g id="patch_3">
    <path d="M 57.6 307.584 
L 57.6 41.472 
" style="fill: none; stroke: #000000; stroke-width: 0.8; stroke-linejoin: miter; stroke-linecap: square"/>
   </g>
   <g id="patch_4">
    <path d="M 414.72 307.584 
L 414.72 41.472 
" style="fill: none; stroke: #000000; stroke-width: 0.8; stroke-linejoin: miter; stroke-linecap: square"/>
   </g>
   <g id="patch_5">
    <path d="M 57.6 307.584 
L 414.72 307.584 
" style="fill: none; stroke: #000000; stroke-width: 0.8; stroke-linejoin: miter; stroke-linecap: square"/>
   </g>
   <g id="patch_6">
    <path d="M 57.6 41.472 
L 414.72 41.472 
" style="fill: none; stroke: #000000; stroke-width: 0.8; stroke-linejoin: miter; stroke-linecap: square"/>
   </g>
   <g id="legend_1">
    <g id="patch_7">
     <path d="M 300.977813 78.82825 
L 407.72 78.82825 
Q 409.72 78.82825 409.72 76.82825 
L 409.72 48.472 
Q 409.72 46.472 407.72 46.472 
L 300.977813 46.472 
Q 298.977813 46.472 298.977813 48.472 
L 298.977813 76.82825 
Q 298.977813 78.82825 300.977813 78.82825 
z
" style="fill: #ffffff; opacity: 0.8; stroke: #cccccc; stroke-linejoin: miter"/>
    </g>
    <g id="line2d_27">
     <path d="M 302.977813 54.570437 
L 312.977813 54.570437 
L 322.977813 54.570437 
" style="fill: none; stroke: #1f77b4; stroke-width: 2; stroke-linecap: square"/>
    </g>
    <g id="text_15">
     <!-- Simulated VQE -->
     <g transform="translate(330.977813 58.070437) scale(0.1 -0.1)">
      <defs>
       <path id="DejaVuSans-53" d="M 3425 4513 
L 3425 3897 
Q 3066 4069 2747 4153 
Q 2428 4238 2131 4238 
Q 1616 4238 1336 4038 
Q 1056 3838 1056 3469 
Q 1056 3159 1242 3001 
Q 1428 2844 1947 2747 
L 2328 2669 
Q 3034 2534 3370 2195 
Q 3706 1856 3706 1288 
Q 3706 609 3251 259 
Q 2797 -91 1919 -91 
Q 1588 -91 1214 -16 
Q 841 59 441 206 
L 441 856 
Q 825 641 1194 531 
Q 1563 422 1919 422 
Q 2459 422 2753 634 
Q 3047 847 3047 1241 
Q 3047 1584 2836 1778 
Q 2625 1972 2144 2069 
L 1759 2144 
Q 1053 2284 737 2584 
Q 422 2884 422 3419 
Q 422 4038 858 4394 
Q 1294 4750 2059 4750 
Q 2388 4750 2728 4690 
Q 3069 4631 3425 4513 
z
" transform="scale(0.015625)"/>
       <path id="DejaVuSans-6d" d="M 3328 2828 
Q 3544 3216 3844 3400 
Q 4144 3584 4550 3584 
Q 5097 3584 5394 3201 
Q 5691 2819 5691 2113 
L 5691 0 
L 5113 0 
L 5113 2094 
Q 5113 2597 4934 2840 
Q 4756 3084 4391 3084 
Q 3944 3084 3684 2787 
Q 3425 2491 3425 1978 
L 3425 0 
L 2847 0 
L 2847 2094 
Q 2847 2600 2669 2842 
Q 2491 3084 2119 3084 
Q 1678 3084 1418 2786 
Q 1159 2488 1159 1978 
L 1159 0 
L 581 0 
L 581 3500 
L 1159 3500 
L 1159 2956 
Q 1356 3278 1631 3431 
Q 1906 3584 2284 3584 
Q 2666 3584 2933 3390 
Q 3200 3197 3328 2828 
z
" transform="scale(0.015625)"/>
       <path id="DejaVuSans-75" d="M 544 1381 
L 544 3500 
L 1119 3500 
L 1119 1403 
Q 1119 906 1312 657 
Q 1506 409 1894 409 
Q 2359 409 2629 706 
Q 2900 1003 2900 1516 
L 2900 3500 
L 3475 3500 
L 3475 0 
L 2900 0 
L 2900 538 
Q 2691 219 2414 64 
Q 2138 -91 1772 -91 
Q 1169 -91 856 284 
Q 544 659 544 1381 
z
M 1991 3584 
L 1991 3584 
z
" transform="scale(0.015625)"/>
       <path id="DejaVuSans-6c" d="M 603 4863 
L 1178 4863 
L 1178 0 
L 603 0 
L 603 4863 
z
" transform="scale(0.015625)"/>
       <path id="DejaVuSans-64" d="M 2906 2969 
L 2906 4863 
L 3481 4863 
L 3481 0 
L 2906 0 
L 2906 525 
Q 2725 213 2448 61 
Q 2172 -91 1784 -91 
Q 1150 -91 751 415 
Q 353 922 353 1747 
Q 353 2572 751 3078 
Q 1150 3584 1784 3584 
Q 2172 3584 2448 3432 
Q 2725 3281 2906 2969 
z
M 947 1747 
Q 947 1113 1208 752 
Q 1469 391 1925 391 
Q 2381 391 2643 752 
Q 2906 1113 2906 1747 
Q 2906 2381 2643 2742 
Q 2381 3103 1925 3103 
Q 1469 3103 1208 2742 
Q 947 2381 947 1747 
z
" transform="scale(0.015625)"/>
       <path id="DejaVuSans-20" transform="scale(0.015625)"/>
       <path id="DejaVuSans-56" d="M 1831 0 
L 50 4666 
L 709 4666 
L 2188 738 
L 3669 4666 
L 4325 4666 
L 2547 0 
L 1831 0 
z
" transform="scale(0.015625)"/>
       <path id="DejaVuSans-51" d="M 2522 4238 
Q 1834 4238 1429 3725 
Q 1025 3213 1025 2328 
Q 1025 1447 1429 934 
Q 1834 422 2522 422 
Q 3209 422 3611 934 
Q 4013 1447 4013 2328 
Q 4013 3213 3611 3725 
Q 3209 4238 2522 4238 
z
M 3406 84 
L 4238 -825 
L 3475 -825 
L 2784 -78 
Q 2681 -84 2626 -87 
Q 2572 -91 2522 -91 
Q 1538 -91 948 567 
Q 359 1225 359 2328 
Q 359 3434 948 4092 
Q 1538 4750 2522 4750 
Q 3503 4750 4090 4092 
Q 4678 3434 4678 2328 
Q 4678 1516 4351 937 
Q 4025 359 3406 84 
z
" transform="scale(0.015625)"/>
      </defs>
      <use xlink:href="#DejaVuSans-53"/>
      <use xlink:href="#DejaVuSans-69" x="63.476562"/>
      <use xlink:href="#DejaVuSans-6d" x="91.259766"/>
      <use xlink:href="#DejaVuSans-75" x="188.671875"/>
      <use xlink:href="#DejaVuSans-6c" x="252.050781"/>
      <use xlink:href="#DejaVuSans-61" x="279.833984"/>
      <use xlink:href="#DejaVuSans-74" x="341.113281"/>
      <use xlink:href="#DejaVuSans-65" x="380.322266"/>
      <use xlink:href="#DejaVuSans-64" x="441.845703"/>
      <use xlink:href="#DejaVuSans-20" x="505.322266"/>
      <use xlink:href="#DejaVuSans-56" x="537.109375"/>
      <use xlink:href="#DejaVuSans-51" x="605.517578"/>
      <use xlink:href="#DejaVuSans-45" x="684.228516"/>
     </g>
    </g>
    <g id="line2d_28">
     <path d="M 302.977813 69.248562 
L 312.977813 69.248562 
L 322.977813 69.248562 
" style="fill: none; stroke-dasharray: 7.4,3.2; stroke-dashoffset: 0; stroke: #1f77b4; stroke-width: 2"/>
    </g>
    <g id="text_16">
     <!-- Target: -3.0 -->
     <g transform="translate(330.977813 72.748562) scale(0.1 -0.1)">
      <defs>
       <path id="DejaVuSans-54" d="M -19 4666 
L 3928 4666 
L 3928 4134 
L 2272 4134 
L 2272 0 
L 1638 0 
L 1638 4134 
L -19 4134 
L -19 4666 
z
" transform="scale(0.015625)"/>
       <path id="DejaVuSans-3a" d="M 750 794 
L 1409 794 
L 1409 0 
L 750 0 
L 750 794 
z
M 750 3309 
L 1409 3309 
L 1409 2516 
L 750 2516 
L 750 3309 
z
" transform="scale(0.015625)"/>
       <path id="DejaVuSans-2d" d="M 313 2009 
L 1997 2009 
L 1997 1497 
L 313 1497 
L 313 2009 
z
" transform="scale(0.015625)"/>
      </defs>
      <use xlink:href="#DejaVuSans-54"/>
      <use xlink:href="#DejaVuSans-61" x="44.583984"/>
      <use xlink:href="#DejaVuSans-72" x="105.863281"/>
      <use xlink:href="#DejaVuSans-67" x="145.226562"/>
      <use xlink:href="#DejaVuSans-65" x="208.703125"/>
      <use xlink:href="#DejaVuSans-74" x="270.226562"/>
      <use xlink:href="#DejaVuSans-3a" x="309.435547"/>
      <use xlink:href="#DejaVuSans-20" x="343.126953"/>
      <use xlink:href="#DejaVuSans-2d" x="374.914062"/>
      <use xlink:href="#DejaVuSans-33" x="410.998047"/>
      <use xlink:href="#DejaVuSans-2e" x="474.621094"/>
      <use xlink:href="#DejaVuSans-30" x="506.408203"/>
     </g>
    </g>
   </g>
  </g>
 </g>
 <defs>
  <clipPath id="p1271d0381a">
   <rect x="57.6" y="41.472" width="357.12" height="266.112"/>
  </clipPath>
 </defs>
</svg>
