<?xml version="1.0" encoding="utf-8" standalone="no"?>
<!DOCTYPE svg PUBLIC "-//W3C//DTD SVG 1.1//EN"
  "http://www.w3.org/Graphics/SVG/1.1/DTD/svg11.dtd">
<svg xmlns:xlink="http://www.w3.org/1999/xlink" width="460.8pt" height="345.6pt" viewBox="0 0 460.8 345.6" xmlns="http://www.w3.org/2000/svg" version="1.1">
 <metadata>
  <rdf:RDF xmlns:dc="http://purl.org/dc/elements/1.1/" xmlns:cc="http://creativecommons.org/ns#" xmlns:rdf="http://www.w3.org/1999/02/22-rdf-syntax-ns#">
   <cc:Work>
    <dc:type rdf:resource="http://purl.org/dc/dcmitype/StillImage"/>
    <dc:date>2023-02-03T00:41:06.973396</dc:date>
    <dc:format>image/svg+xml</dc:format>
    <dc:creator>
     <cc:Agent>
      <dc:title>Matplotlib v3.6.3, https://matplotlib.org/</dc:title>
     </cc:Agent>
    </dc:creator>
   </cc:Work>
  </rdf:RDF>
 </metadata>
 <defs>
  <style type="text/css">*{stroke-linejoin: round; stroke-linecap: butt}</style>
 </defs>
 <g id="figure_1">
  <g id="patch_1">
   <path d="M 0 345.6 
L 460.8 345.6 
L 460.8 0 
L 0 0 
z
" style="fill: #ffffff"/>
  </g>
  <g id="axes_1">
   <g id="patch_2">
    <path d="M 57.6 307.584 
L 414.72 307.584 
L 414.72 41.472 
L 57.6 41.472 
z
" style="fill: #ffffff"/>
   </g>
   <g id="matplotlib.axis_1">
    <g id="xtick_1">
     <g id="line2d_1">
      <path d="M 73.832727 307.584 
L 73.832727 41.472 
" clip-path="url(#p4eb9892bbc)" style="fill: none; stroke: #b0b0b0; stroke-width: 0.8; stroke-linecap: square"/>
     </g>
     <g id="line2d_2">
      <defs>
       <path id="m6c6729bc74" d="M 0 0 
L 0 3.5 
" style="stroke: #000000; stroke-width: 0.8"/>
      </defs>
      <g>
       <use xlink:href="#m6c6729bc74" x="73.832727" y="307.584" style="stroke: #000000; stroke-width: 0.8"/>
      </g>
     </g>
     <g id="text_1">
      <!-- 0 -->
      <g transform="translate(70.651477 322.182437) scale(0.1 -0.1)">
       <defs>
        <path id="DejaVuSans-30" d="M 2034 4250 
Q 1547 4250 1301 3770 
Q 1056 3291 1056 2328 
Q 1056 1369 1301 889 
Q 1547 409 2034 409 
Q 2525 409 2770 889 
Q 3016 1369 3016 2328 
Q 3016 3291 2770 3770 
Q 2525 4250 2034 4250 
z
M 2034 4750 
Q 2819 4750 3233 4129 
Q 3647 3509 3647 2328 
Q 3647 1150 3233 529 
Q 2819 -91 2034 -91 
Q 1250 -91 836 529 
Q 422 1150 422 2328 
Q 422 3509 836 4129 
Q 1250 4750 2034 4750 
z
" transform="scale(0.015625)"/>
       </defs>
       <use xlink:href="#DejaVuSans-30"/>
      </g>
     </g>
    </g>
    <g id="xtick_2">
     <g id="line2d_3">
      <path d="M 139.419504 307.584 
L 139.419504 41.472 
" clip-path="url(#p4eb9892bbc)" style="fill: none; stroke: #b0b0b0; stroke-width: 0.8; stroke-linecap: square"/>
     </g>
     <g id="line2d_4">
      <g>
       <use xlink:href="#m6c6729bc74" x="139.419504" y="307.584" style="stroke: #000000; stroke-width: 0.8"/>
      </g>
     </g>
     <g id="text_2">
      <!-- 10000 -->
      <g transform="translate(123.513254 322.182437) scale(0.1 -0.1)">
       <defs>
        <path id="DejaVuSans-31" d="M 794 531 
L 1825 531 
L 1825 4091 
L 703 3866 
L 703 4441 
L 1819 4666 
L 2450 4666 
L 2450 531 
L 3481 531 
L 3481 0 
L 794 0 
L 794 531 
z
" transform="scale(0.015625)"/>
       </defs>
       <use xlink:href="#DejaVuSans-31"/>
       <use xlink:href="#DejaVuSans-30" x="63.623047"/>
       <use xlink:href="#DejaVuSans-30" x="127.246094"/>
       <use xlink:href="#DejaVuSans-30" x="190.869141"/>
       <use xlink:href="#DejaVuSans-30" x="254.492188"/>
      </g>
     </g>
    </g>
    <g id="xtick_3">
     <g id="line2d_5">
      <path d="M 205.006281 307.584 
L 205.006281 41.472 
" clip-path="url(#p4eb9892bbc)" style="fill: none; stroke: #b0b0b0; stroke-width: 0.8; stroke-linecap: square"/>
     </g>
     <g id="line2d_6">
      <g>
       <use xlink:href="#m6c6729bc74" x="205.006281" y="307.584" style="stroke: #000000; stroke-width: 0.8"/>
      </g>
     </g>
     <g id="text_3">
      <!-- 20000 -->
      <g transform="translate(189.100031 322.182437) scale(0.1 -0.1)">
       <defs>
        <path id="DejaVuSans-32" d="M 1228 531 
L 3431 531 
L 3431 0 
L 469 0 
L 469 531 
Q 828 903 1448 1529 
Q 2069 2156 2228 2338 
Q 2531 2678 2651 2914 
Q 2772 3150 2772 3378 
Q 2772 3750 2511 3984 
Q 2250 4219 1831 4219 
Q 1534 4219 1204 4116 
Q 875 4013 500 3803 
L 500 4441 
Q 881 4594 1212 4672 
Q 1544 4750 1819 4750 
Q 2544 4750 2975 4387 
Q 3406 4025 3406 3419 
Q 3406 3131 3298 2873 
Q 3191 2616 2906 2266 
Q 2828 2175 2409 1742 
Q 1991 1309 1228 531 
z
" transform="scale(0.015625)"/>
       </defs>
       <use xlink:href="#DejaVuSans-32"/>
       <use xlink:href="#DejaVuSans-30" x="63.623047"/>
       <use xlink:href="#DejaVuSans-30" x="127.246094"/>
       <use xlink:href="#DejaVuSans-30" x="190.869141"/>
       <use xlink:href="#DejaVuSans-30" x="254.492188"/>
      </g>
     </g>
    </g>
    <g id="xtick_4">
     <g id="line2d_7">
      <path d="M 270.593058 307.584 
L 270.593058 41.472 
" clip-path="url(#p4eb9892bbc)" style="fill: none; stroke: #b0b0b0; stroke-width: 0.8; stroke-linecap: square"/>
     </g>
     <g id="line2d_8">
      <g>
       <use xlink:href="#m6c6729bc74" x="270.593058" y="307.584" style="stroke: #000000; stroke-width: 0.8"/>
      </g>
     </g>
     <g id="text_4">
      <!-- 30000 -->
      <g transform="translate(254.686808 322.182437) scale(0.1 -0.1)">
       <defs>
        <path id="DejaVuSans-33" d="M 2597 2516 
Q 3050 2419 3304 2112 
Q 3559 1806 3559 1356 
Q 3559 666 3084 287 
Q 2609 -91 1734 -91 
Q 1441 -91 1130 -33 
Q 819 25 488 141 
L 488 750 
Q 750 597 1062 519 
Q 1375 441 1716 441 
Q 2309 441 2620 675 
Q 2931 909 2931 1356 
Q 2931 1769 2642 2001 
Q 2353 2234 1838 2234 
L 1294 2234 
L 1294 2753 
L 1863 2753 
Q 2328 2753 2575 2939 
Q 2822 3125 2822 3475 
Q 2822 3834 2567 4026 
Q 2313 4219 1838 4219 
Q 1578 4219 1281 4162 
Q 984 4106 628 3988 
L 628 4550 
Q 988 4650 1302 4700 
Q 1616 4750 1894 4750 
Q 2613 4750 3031 4423 
Q 3450 4097 3450 3541 
Q 3450 3153 3228 2886 
Q 3006 2619 2597 2516 
z
" transform="scale(0.015625)"/>
       </defs>
       <use xlink:href="#DejaVuSans-33"/>
       <use xlink:href="#DejaVuSans-30" x="63.623047"/>
       <use xlink:href="#DejaVuSans-30" x="127.246094"/>
       <use xlink:href="#DejaVuSans-30" x="190.869141"/>
       <use xlink:href="#DejaVuSans-30" x="254.492188"/>
      </g>
     </g>
    </g>
    <g id="xtick_5">
     <g id="line2d_9">
      <path d="M 336.179835 307.584 
L 336.179835 41.472 
" clip-path="url(#p4eb9892bbc)" style="fill: none; stroke: #b0b0b0; stroke-width: 0.8; stroke-linecap: square"/>
     </g>
     <g id="line2d_10">
      <g>
       <use xlink:href="#m6c6729bc74" x="336.179835" y="307.584" style="stroke: #000000; stroke-width: 0.8"/>
      </g>
     </g>
     <g id="text_5">
      <!-- 40000 -->
      <g transform="translate(320.273585 322.182437) scale(0.1 -0.1)">
       <defs>
        <path id="DejaVuSans-34" d="M 2419 4116 
L 825 1625 
L 2419 1625 
L 2419 4116 
z
M 2253 4666 
L 3047 4666 
L 3047 1625 
L 3713 1625 
L 3713 1100 
L 3047 1100 
L 3047 0 
L 2419 0 
L 2419 1100 
L 313 1100 
L 313 1709 
L 2253 4666 
z
" transform="scale(0.015625)"/>
       </defs>
       <use xlink:href="#DejaVuSans-34"/>
       <use xlink:href="#DejaVuSans-30" x="63.623047"/>
       <use xlink:href="#DejaVuSans-30" x="127.246094"/>
       <use xlink:href="#DejaVuSans-30" x="190.869141"/>
       <use xlink:href="#DejaVuSans-30" x="254.492188"/>
      </g>
     </g>
    </g>
    <g id="xtick_6">
     <g id="line2d_11">
      <path d="M 401.766612 307.584 
L 401.766612 41.472 
" clip-path="url(#p4eb9892bbc)" style="fill: none; stroke: #b0b0b0; stroke-width: 0.8; stroke-linecap: square"/>
     </g>
     <g id="line2d_12">
      <g>
       <use xlink:href="#m6c6729bc74" x="401.766612" y="307.584" style="stroke: #000000; stroke-width: 0.8"/>
      </g>
     </g>
     <g id="text_6">
      <!-- 50000 -->
      <g transform="translate(385.860362 322.182437) scale(0.1 -0.1)">
       <defs>
        <path id="DejaVuSans-35" d="M 691 4666 
L 3169 4666 
L 3169 4134 
L 1269 4134 
L 1269 2991 
Q 1406 3038 1543 3061 
Q 1681 3084 1819 3084 
Q 2600 3084 3056 2656 
Q 3513 2228 3513 1497 
Q 3513 744 3044 326 
Q 2575 -91 1722 -91 
Q 1428 -91 1123 -41 
Q 819 9 494 109 
L 494 744 
Q 775 591 1075 516 
Q 1375 441 1709 441 
Q 2250 441 2565 725 
Q 2881 1009 2881 1497 
Q 2881 1984 2565 2268 
Q 2250 2553 1709 2553 
Q 1456 2553 1204 2497 
Q 953 2441 691 2322 
L 691 4666 
z
" transform="scale(0.015625)"/>
       </defs>
       <use xlink:href="#DejaVuSans-35"/>
       <use xlink:href="#DejaVuSans-30" x="63.623047"/>
       <use xlink:href="#DejaVuSans-30" x="127.246094"/>
       <use xlink:href="#DejaVuSans-30" x="190.869141"/>
       <use xlink:href="#DejaVuSans-30" x="254.492188"/>
      </g>
     </g>
    </g>
    <g id="text_7">
     <!-- Iterations -->
     <g transform="translate(212.346719 335.860562) scale(0.1 -0.1)">
      <defs>
       <path id="DejaVuSans-49" d="M 628 4666 
L 1259 4666 
L 1259 0 
L 628 0 
L 628 4666 
z
" transform="scale(0.015625)"/>
       <path id="DejaVuSans-74" d="M 1172 4494 
L 1172 3500 
L 2356 3500 
L 2356 3053 
L 1172 3053 
L 1172 1153 
Q 1172 725 1289 603 
Q 1406 481 1766 481 
L 2356 481 
L 2356 0 
L 1766 0 
Q 1100 0 847 248 
Q 594 497 594 1153 
L 594 3053 
L 172 3053 
L 172 3500 
L 594 3500 
L 594 4494 
L 1172 4494 
z
" transform="scale(0.015625)"/>
       <path id="DejaVuSans-65" d="M 3597 1894 
L 3597 1613 
L 953 1613 
Q 991 1019 1311 708 
Q 1631 397 2203 397 
Q 2534 397 2845 478 
Q 3156 559 3463 722 
L 3463 178 
Q 3153 47 2828 -22 
Q 2503 -91 2169 -91 
Q 1331 -91 842 396 
Q 353 884 353 1716 
Q 353 2575 817 3079 
Q 1281 3584 2069 3584 
Q 2775 3584 3186 3129 
Q 3597 2675 3597 1894 
z
M 3022 2063 
Q 3016 2534 2758 2815 
Q 2500 3097 2075 3097 
Q 1594 3097 1305 2825 
Q 1016 2553 972 2059 
L 3022 2063 
z
" transform="scale(0.015625)"/>
       <path id="DejaVuSans-72" d="M 2631 2963 
Q 2534 3019 2420 3045 
Q 2306 3072 2169 3072 
Q 1681 3072 1420 2755 
Q 1159 2438 1159 1844 
L 1159 0 
L 581 0 
L 581 3500 
L 1159 3500 
L 1159 2956 
Q 1341 3275 1631 3429 
Q 1922 3584 2338 3584 
Q 2397 3584 2469 3576 
Q 2541 3569 2628 3553 
L 2631 2963 
z
" transform="scale(0.015625)"/>
       <path id="DejaVuSans-61" d="M 2194 1759 
Q 1497 1759 1228 1600 
Q 959 1441 959 1056 
Q 959 750 1161 570 
Q 1363 391 1709 391 
Q 2188 391 2477 730 
Q 2766 1069 2766 1631 
L 2766 1759 
L 2194 1759 
z
M 3341 1997 
L 3341 0 
L 2766 0 
L 2766 531 
Q 2569 213 2275 61 
Q 1981 -91 1556 -91 
Q 1019 -91 701 211 
Q 384 513 384 1019 
Q 384 1609 779 1909 
Q 1175 2209 1959 2209 
L 2766 2209 
L 2766 2266 
Q 2766 2663 2505 2880 
Q 2244 3097 1772 3097 
Q 1472 3097 1187 3025 
Q 903 2953 641 2809 
L 641 3341 
Q 956 3463 1253 3523 
Q 1550 3584 1831 3584 
Q 2591 3584 2966 3190 
Q 3341 2797 3341 1997 
z
" transform="scale(0.015625)"/>
       <path id="DejaVuSans-69" d="M 603 3500 
L 1178 3500 
L 1178 0 
L 603 0 
L 603 3500 
z
M 603 4863 
L 1178 4863 
L 1178 4134 
L 603 4134 
L 603 4863 
z
" transform="scale(0.015625)"/>
       <path id="DejaVuSans-6f" d="M 1959 3097 
Q 1497 3097 1228 2736 
Q 959 2375 959 1747 
Q 959 1119 1226 758 
Q 1494 397 1959 397 
Q 2419 397 2687 759 
Q 2956 1122 2956 1747 
Q 2956 2369 2687 2733 
Q 2419 3097 1959 3097 
z
M 1959 3584 
Q 2709 3584 3137 3096 
Q 3566 2609 3566 1747 
Q 3566 888 3137 398 
Q 2709 -91 1959 -91 
Q 1206 -91 779 398 
Q 353 888 353 1747 
Q 353 2609 779 3096 
Q 1206 3584 1959 3584 
z
" transform="scale(0.015625)"/>
       <path id="DejaVuSans-6e" d="M 3513 2113 
L 3513 0 
L 2938 0 
L 2938 2094 
Q 2938 2591 2744 2837 
Q 2550 3084 2163 3084 
Q 1697 3084 1428 2787 
Q 1159 2491 1159 1978 
L 1159 0 
L 581 0 
L 581 3500 
L 1159 3500 
L 1159 2956 
Q 1366 3272 1645 3428 
Q 1925 3584 2291 3584 
Q 2894 3584 3203 3211 
Q 3513 2838 3513 2113 
z
" transform="scale(0.015625)"/>
       <path id="DejaVuSans-73" d="M 2834 3397 
L 2834 2853 
Q 2591 2978 2328 3040 
Q 2066 3103 1784 3103 
Q 1356 3103 1142 2972 
Q 928 2841 928 2578 
Q 928 2378 1081 2264 
Q 1234 2150 1697 2047 
L 1894 2003 
Q 2506 1872 2764 1633 
Q 3022 1394 3022 966 
Q 3022 478 2636 193 
Q 2250 -91 1575 -91 
Q 1294 -91 989 -36 
Q 684 19 347 128 
L 347 722 
Q 666 556 975 473 
Q 1284 391 1588 391 
Q 1994 391 2212 530 
Q 2431 669 2431 922 
Q 2431 1156 2273 1281 
Q 2116 1406 1581 1522 
L 1381 1569 
Q 847 1681 609 1914 
Q 372 2147 372 2553 
Q 372 3047 722 3315 
Q 1072 3584 1716 3584 
Q 2034 3584 2315 3537 
Q 2597 3491 2834 3397 
z
" transform="scale(0.015625)"/>
      </defs>
      <use xlink:href="#DejaVuSans-49"/>
      <use xlink:href="#DejaVuSans-74" x="29.492188"/>
      <use xlink:href="#DejaVuSans-65" x="68.701172"/>
      <use xlink:href="#DejaVuSans-72" x="130.224609"/>
      <use xlink:href="#DejaVuSans-61" x="171.337891"/>
      <use xlink:href="#DejaVuSans-74" x="232.617188"/>
      <use xlink:href="#DejaVuSans-69" x="271.826172"/>
      <use xlink:href="#DejaVuSans-6f" x="299.609375"/>
      <use xlink:href="#DejaVuSans-6e" x="360.791016"/>
      <use xlink:href="#DejaVuSans-73" x="424.169922"/>
     </g>
    </g>
   </g>
   <g id="matplotlib.axis_2">
    <g id="ytick_1">
     <g id="line2d_13">
      <path d="M 57.6 300.843364 
L 414.72 300.843364 
" clip-path="url(#p4eb9892bbc)" style="fill: none; stroke: #b0b0b0; stroke-width: 0.8; stroke-linecap: square"/>
     </g>
     <g id="line2d_14">
      <defs>
       <path id="mce8954cfdf" d="M 0 0 
L -3.5 0 
" style="stroke: #000000; stroke-width: 0.8"/>
      </defs>
      <g>
       <use xlink:href="#mce8954cfdf" x="57.6" y="300.843364" style="stroke: #000000; stroke-width: 0.8"/>
      </g>
     </g>
     <g id="text_8">
      <!-- −8 -->
      <g transform="translate(35.857813 304.642583) scale(0.1 -0.1)">
       <defs>
        <path id="DejaVuSans-2212" d="M 678 2272 
L 4684 2272 
L 4684 1741 
L 678 1741 
L 678 2272 
z
" transform="scale(0.015625)"/>
        <path id="DejaVuSans-38" d="M 2034 2216 
Q 1584 2216 1326 1975 
Q 1069 1734 1069 1313 
Q 1069 891 1326 650 
Q 1584 409 2034 409 
Q 2484 409 2743 651 
Q 3003 894 3003 1313 
Q 3003 1734 2745 1975 
Q 2488 2216 2034 2216 
z
M 1403 2484 
Q 997 2584 770 2862 
Q 544 3141 544 3541 
Q 544 4100 942 4425 
Q 1341 4750 2034 4750 
Q 2731 4750 3128 4425 
Q 3525 4100 3525 3541 
Q 3525 3141 3298 2862 
Q 3072 2584 2669 2484 
Q 3125 2378 3379 2068 
Q 3634 1759 3634 1313 
Q 3634 634 3220 271 
Q 2806 -91 2034 -91 
Q 1263 -91 848 271 
Q 434 634 434 1313 
Q 434 1759 690 2068 
Q 947 2378 1403 2484 
z
M 1172 3481 
Q 1172 3119 1398 2916 
Q 1625 2713 2034 2713 
Q 2441 2713 2670 2916 
Q 2900 3119 2900 3481 
Q 2900 3844 2670 4047 
Q 2441 4250 2034 4250 
Q 1625 4250 1398 4047 
Q 1172 3844 1172 3481 
z
" transform="scale(0.015625)"/>
       </defs>
       <use xlink:href="#DejaVuSans-2212"/>
       <use xlink:href="#DejaVuSans-38" x="83.789062"/>
      </g>
     </g>
    </g>
    <g id="ytick_2">
     <g id="line2d_15">
      <path d="M 57.6 254.712141 
L 414.72 254.712141 
" clip-path="url(#p4eb9892bbc)" style="fill: none; stroke: #b0b0b0; stroke-width: 0.8; stroke-linecap: square"/>
     </g>
     <g id="line2d_16">
      <g>
       <use xlink:href="#mce8954cfdf" x="57.6" y="254.712141" style="stroke: #000000; stroke-width: 0.8"/>
      </g>
     </g>
     <g id="text_9">
      <!-- −6 -->
      <g transform="translate(35.857813 258.51136) scale(0.1 -0.1)">
       <defs>
        <path id="DejaVuSans-36" d="M 2113 2584 
Q 1688 2584 1439 2293 
Q 1191 2003 1191 1497 
Q 1191 994 1439 701 
Q 1688 409 2113 409 
Q 2538 409 2786 701 
Q 3034 994 3034 1497 
Q 3034 2003 2786 2293 
Q 2538 2584 2113 2584 
z
M 3366 4563 
L 3366 3988 
Q 3128 4100 2886 4159 
Q 2644 4219 2406 4219 
Q 1781 4219 1451 3797 
Q 1122 3375 1075 2522 
Q 1259 2794 1537 2939 
Q 1816 3084 2150 3084 
Q 2853 3084 3261 2657 
Q 3669 2231 3669 1497 
Q 3669 778 3244 343 
Q 2819 -91 2113 -91 
Q 1303 -91 875 529 
Q 447 1150 447 2328 
Q 447 3434 972 4092 
Q 1497 4750 2381 4750 
Q 2619 4750 2861 4703 
Q 3103 4656 3366 4563 
z
" transform="scale(0.015625)"/>
       </defs>
       <use xlink:href="#DejaVuSans-2212"/>
       <use xlink:href="#DejaVuSans-36" x="83.789062"/>
      </g>
     </g>
    </g>
    <g id="ytick_3">
     <g id="line2d_17">
      <path d="M 57.6 208.580918 
L 414.72 208.580918 
" clip-path="url(#p4eb9892bbc)" style="fill: none; stroke: #b0b0b0; stroke-width: 0.8; stroke-linecap: square"/>
     </g>
     <g id="line2d_18">
      <g>
       <use xlink:href="#mce8954cfdf" x="57.6" y="208.580918" style="stroke: #000000; stroke-width: 0.8"/>
      </g>
     </g>
     <g id="text_10">
      <!-- −4 -->
      <g transform="translate(35.857813 212.380136) scale(0.1 -0.1)">
       <use xlink:href="#DejaVuSans-2212"/>
       <use xlink:href="#DejaVuSans-34" x="83.789062"/>
      </g>
     </g>
    </g>
    <g id="ytick_4">
     <g id="line2d_19">
      <path d="M 57.6 162.449695 
L 414.72 162.449695 
" clip-path="url(#p4eb9892bbc)" style="fill: none; stroke: #b0b0b0; stroke-width: 0.8; stroke-linecap: square"/>
     </g>
     <g id="line2d_20">
      <g>
       <use xlink:href="#mce8954cfdf" x="57.6" y="162.449695" style="stroke: #000000; stroke-width: 0.8"/>
      </g>
     </g>
     <g id="text_11">
      <!-- −2 -->
      <g transform="translate(35.857813 166.248913) scale(0.1 -0.1)">
       <use xlink:href="#DejaVuSans-2212"/>
       <use xlink:href="#DejaVuSans-32" x="83.789062"/>
      </g>
     </g>
    </g>
    <g id="ytick_5">
     <g id="line2d_21">
      <path d="M 57.6 116.318471 
L 414.72 116.318471 
" clip-path="url(#p4eb9892bbc)" style="fill: none; stroke: #b0b0b0; stroke-width: 0.8; stroke-linecap: square"/>
     </g>
     <g id="line2d_22">
      <g>
       <use xlink:href="#mce8954cfdf" x="57.6" y="116.318471" style="stroke: #000000; stroke-width: 0.8"/>
      </g>
     </g>
     <g id="text_12">
      <!-- 0 -->
      <g transform="translate(44.2375 120.11769) scale(0.1 -0.1)">
       <use xlink:href="#DejaVuSans-30"/>
      </g>
     </g>
    </g>
    <g id="ytick_6">
     <g id="line2d_23">
      <path d="M 57.6 70.187248 
L 414.72 70.187248 
" clip-path="url(#p4eb9892bbc)" style="fill: none; stroke: #b0b0b0; stroke-width: 0.8; stroke-linecap: square"/>
     </g>
     <g id="line2d_24">
      <g>
       <use xlink:href="#mce8954cfdf" x="57.6" y="70.187248" style="stroke: #000000; stroke-width: 0.8"/>
      </g>
     </g>
     <g id="text_13">
      <!-- 2 -->
      <g transform="translate(44.2375 73.986467) scale(0.1 -0.1)">
       <use xlink:href="#DejaVuSans-32"/>
      </g>
     </g>
    </g>
    <g id="text_14">
     <!-- Energy -->
     <g transform="translate(29.778125 192.03425) rotate(-90) scale(0.1 -0.1)">
      <defs>
       <path id="DejaVuSans-45" d="M 628 4666 
L 3578 4666 
L 3578 4134 
L 1259 4134 
L 1259 2753 
L 3481 2753 
L 3481 2222 
L 1259 2222 
L 1259 531 
L 3634 531 
L 3634 0 
L 628 0 
L 628 4666 
z
" transform="scale(0.015625)"/>
       <path id="DejaVuSans-67" d="M 2906 1791 
Q 2906 2416 2648 2759 
Q 2391 3103 1925 3103 
Q 1463 3103 1205 2759 
Q 947 2416 947 1791 
Q 947 1169 1205 825 
Q 1463 481 1925 481 
Q 2391 481 2648 825 
Q 2906 1169 2906 1791 
z
M 3481 434 
Q 3481 -459 3084 -895 
Q 2688 -1331 1869 -1331 
Q 1566 -1331 1297 -1286 
Q 1028 -1241 775 -1147 
L 775 -588 
Q 1028 -725 1275 -790 
Q 1522 -856 1778 -856 
Q 2344 -856 2625 -561 
Q 2906 -266 2906 331 
L 2906 616 
Q 2728 306 2450 153 
Q 2172 0 1784 0 
Q 1141 0 747 490 
Q 353 981 353 1791 
Q 353 2603 747 3093 
Q 1141 3584 1784 3584 
Q 2172 3584 2450 3431 
Q 2728 3278 2906 2969 
L 2906 3500 
L 3481 3500 
L 3481 434 
z
" transform="scale(0.015625)"/>
       <path id="DejaVuSans-79" d="M 2059 -325 
Q 1816 -950 1584 -1140 
Q 1353 -1331 966 -1331 
L 506 -1331 
L 506 -850 
L 844 -850 
Q 1081 -850 1212 -737 
Q 1344 -625 1503 -206 
L 1606 56 
L 191 3500 
L 800 3500 
L 1894 763 
L 2988 3500 
L 3597 3500 
L 2059 -325 
z
" transform="scale(0.015625)"/>
      </defs>
      <use xlink:href="#DejaVuSans-45"/>
      <use xlink:href="#DejaVuSans-6e" x="63.183594"/>
      <use xlink:href="#DejaVuSans-65" x="126.5625"/>
      <use xlink:href="#DejaVuSans-72" x="188.085938"/>
      <use xlink:href="#DejaVuSans-67" x="227.449219"/>
      <use xlink:href="#DejaVuSans-79" x="290.925781"/>
     </g>
    </g>
   </g>
   <g id="line2d_25">
    <path d="M 73.832727 53.568 
L 74.042605 53.568 
L 74.154102 53.743765 
L 74.259041 53.743765 
L 74.370539 53.920904 
L 74.475478 53.920904 
L 74.586975 54.099435 
L 74.691914 54.099435 
L 74.803412 54.279375 
L 74.90835 54.279375 
L 75.019848 54.46074 
L 75.124787 54.46074 
L 75.236284 54.643548 
L 75.341223 54.643548 
L 75.452721 54.827817 
L 75.55766 54.827817 
L 75.669157 55.013567 
L 75.774096 55.013567 
L 75.885593 55.200816 
L 75.990532 55.200816 
L 76.10203 55.389583 
L 76.206969 55.389583 
L 76.318466 55.579888 
L 76.423405 55.579888 
L 76.534902 55.77175 
L 76.639841 55.77175 
L 76.751339 55.965187 
L 76.856278 55.965187 
L 76.967775 56.160218 
L 77.072714 56.160218 
L 77.184212 56.356861 
L 77.28915 56.356861 
L 77.400648 56.555135 
L 77.505587 56.555135 
L 77.617084 56.755056 
L 77.722023 56.755056 
L 77.833521 56.956642 
L 77.93846 56.956642 
L 78.049957 57.159909 
L 78.154896 57.159909 
L 78.266393 57.364874 
L 78.371332 57.364874 
L 78.48283 57.57155 
L 78.587769 57.57155 
L 78.699266 57.779953 
L 78.804205 57.779953 
L 78.915702 57.990096 
L 79.020641 57.990096 
L 79.132139 58.201993 
L 79.237078 58.201993 
L 79.348575 58.415655 
L 79.453514 58.415655 
L 79.565012 58.631094 
L 79.66995 58.631094 
L 79.781448 58.84832 
L 79.886387 58.84832 
L 79.997884 59.067345 
L 80.102823 59.067345 
L 80.214321 59.288175 
L 80.31926 59.288175 
L 80.430757 59.510822 
L 80.535696 59.510822 
L 80.647193 59.73529 
L 80.752132 59.73529 
L 80.86363 59.961588 
L 80.968569 59.961588 
L 81.080066 60.189722 
L 81.185005 60.189722 
L 81.296502 60.419696 
L 81.401441 60.419696 
L 81.512939 60.651515 
L 81.617878 60.651515 
L 81.729375 60.885184 
L 81.834314 60.885184 
L 81.945812 61.120705 
L 82.05075 61.120705 
L 82.162248 61.358082 
L 82.267187 61.358082 
L 82.378684 61.597314 
L 82.483623 61.597314 
L 82.595121 61.838405 
L 82.70006 61.838405 
L 82.811557 62.081355 
L 82.916496 62.081355 
L 83.027993 62.326164 
L 83.132932 62.326164 
L 83.24443 62.572831 
L 83.349369 62.572831 
L 83.460866 62.821356 
L 83.565805 62.821356 
L 83.677302 63.071738 
L 83.782241 63.071738 
L 83.893739 63.323975 
L 83.998678 63.323975 
L 84.110175 63.578064 
L 84.215114 63.578064 
L 84.326612 63.834003 
L 84.43155 63.834003 
L 84.543048 64.091789 
L 84.647987 64.091789 
L 84.759484 64.35142 
L 84.864423 64.35142 
L 84.975921 64.612891 
L 85.08086 64.612891 
L 85.192357 64.876199 
L 85.297296 64.876199 
L 85.408793 65.14134 
L 85.513732 65.14134 
L 85.62523 65.408309 
L 85.730169 65.408309 
L 85.841666 65.677102 
L 85.946605 65.677102 
L 86.058102 65.947715 
L 86.163041 65.947715 
L 86.274539 66.220142 
L 86.379478 66.220142 
L 86.490975 66.49438 
L 86.595914 66.49438 
L 86.707412 66.770422 
L 86.81235 66.770422 
L 86.923848 67.048264 
L 87.028787 67.048264 
L 87.140284 67.327901 
L 87.245223 67.327901 
L 87.356721 67.609326 
L 87.46166 67.609326 
L 87.573157 67.892534 
L 87.678096 67.892534 
L 87.789593 68.17752 
L 87.894532 68.17752 
L 88.00603 68.464278 
L 88.110969 68.464278 
L 88.222466 68.752802 
L 88.327405 68.752802 
L 88.438902 69.043085 
L 88.543841 69.043085 
L 88.655339 69.335122 
L 88.760278 69.335122 
L 88.871775 69.628906 
L 88.976714 69.628906 
L 89.088212 69.92443 
L 89.19315 69.92443 
L 89.304648 70.221689 
L 89.409587 70.221689 
L 89.521084 70.520676 
L 89.626023 70.520676 
L 89.737521 70.821383 
L 89.84246 70.821383 
L 89.953957 71.123804 
L 90.058896 71.123804 
L 90.170393 71.427932 
L 90.275332 71.427932 
L 90.38683 71.73376 
L 90.491769 71.73376 
L 90.603266 72.041281 
L 90.708205 72.041281 
L 90.819702 72.350488 
L 90.924641 72.350488 
L 91.036139 72.661375 
L 91.141078 72.661375 
L 91.252575 72.973934 
L 91.357514 72.973934 
L 91.469012 73.28816 
L 91.57395 73.28816 
L 91.685448 73.604045 
L 91.790387 73.604045 
L 91.901884 73.921583 
L 92.006823 73.921583 
L 92.118321 74.240769 
L 92.22326 74.240769 
L 92.334757 74.561597 
L 92.439696 74.561597 
L 92.551193 74.884061 
L 92.656132 74.884061 
L 92.76763 75.208156 
L 92.872569 75.208156 
L 92.984066 75.533878 
L 93.089005 75.533878 
L 93.200502 75.861221 
L 93.305441 75.861221 
L 93.416939 76.19018 
L 93.521878 76.19018 
L 93.633375 76.520752 
L 93.738314 76.520752 
L 93.849812 76.852931 
L 93.95475 76.852931 
L 94.066248 77.186714 
L 94.171187 77.186714 
L 94.282684 77.522096 
L 94.387623 77.522096 
L 94.499121 77.859072 
L 94.60406 77.859072 
L 94.715557 78.197638 
L 94.820496 78.197638 
L 94.931993 78.537787 
L 95.036932 78.537787 
L 95.14843 78.879515 
L 95.253369 78.879515 
L 95.364866 79.222814 
L 95.469805 79.222814 
L 95.581302 79.567678 
L 95.686241 79.567678 
L 95.797739 79.914097 
L 95.902678 79.914097 
L 96.014175 80.262062 
L 96.119114 80.262062 
L 96.230612 80.611564 
L 96.33555 80.611564 
L 96.447048 80.962589 
L 96.551987 80.962589 
L 96.663484 81.315125 
L 96.768423 81.315125 
L 96.879921 81.669158 
L 96.98486 81.669158 
L 97.096357 82.02467 
L 97.201296 82.02467 
L 97.312793 82.381645 
L 97.417732 82.381645 
L 97.52923 82.740063 
L 97.634169 82.740063 
L 97.745666 83.099903 
L 97.850605 83.099903 
L 97.962102 83.461144 
L 98.067041 83.461144 
L 98.178539 83.823761 
L 98.283478 83.823761 
L 98.394975 84.187729 
L 98.499914 84.187729 
L 98.611412 84.553022 
L 98.71635 84.553022 
L 98.827848 84.919612 
L 98.932787 84.919612 
L 99.044284 85.287469 
L 99.149223 85.287469 
L 99.260721 85.656564 
L 99.36566 85.656564 
L 99.477157 86.026864 
L 99.582096 86.026864 
L 99.693593 86.398338 
L 99.798532 86.398338 
L 99.91003 86.770952 
L 100.014969 86.770952 
L 100.126466 87.14467 
L 100.231405 87.14467 
L 100.342902 87.51946 
L 100.447841 87.51946 
L 100.559339 87.895283 
L 100.664278 87.895283 
L 100.775775 88.272105 
L 100.880714 88.272105 
L 100.992212 88.649888 
L 101.09715 88.649888 
L 101.208648 89.028594 
L 101.313587 89.028594 
L 101.425084 89.408186 
L 101.530023 89.408186 
L 101.641521 89.788625 
L 101.74646 89.788625 
L 101.857957 90.169873 
L 101.962896 90.169873 
L 102.074393 90.551891 
L 102.179332 90.551891 
L 102.29083 90.93464 
L 102.395769 90.93464 
L 102.507266 91.31808 
L 102.612205 91.31808 
L 102.723702 91.702173 
L 102.828641 91.702173 
L 102.940139 92.086878 
L 103.045078 92.086878 
L 103.156575 92.472158 
L 103.261514 92.472158 
L 103.373012 92.857971 
L 103.47795 92.857971 
L 103.589448 93.24428 
L 103.694387 93.24428 
L 103.805884 93.631045 
L 103.910823 93.631045 
L 104.022321 94.018226 
L 104.12726 94.018226 
L 104.238757 94.405786 
L 104.343696 94.405786 
L 104.455193 94.793685 
L 104.560132 94.793685 
L 104.67163 95.181886 
L 104.776569 95.181886 
L 104.888066 95.570349 
L 104.993005 95.570349 
L 105.104502 95.959038 
L 105.209441 95.959038 
L 105.320939 96.347914 
L 105.425878 96.347914 
L 105.537375 96.736941 
L 105.642314 96.736941 
L 105.753812 97.126081 
L 105.85875 97.126081 
L 105.970248 97.515299 
L 106.075187 97.515299 
L 106.186684 97.904558 
L 106.291623 97.904558 
L 106.403121 98.293822 
L 106.50806 98.293822 
L 106.619557 98.683056 
L 106.724496 98.683056 
L 106.835993 99.072226 
L 106.940932 99.072226 
L 107.05243 99.461298 
L 107.157369 99.461298 
L 107.268866 99.850237 
L 107.373805 99.850237 
L 107.485302 100.23901 
L 107.590241 100.23901 
L 107.701739 100.627586 
L 107.806678 100.627586 
L 107.918175 101.015931 
L 108.023114 101.015931 
L 108.134612 101.404014 
L 108.23955 101.404014 
L 108.351048 101.791804 
L 108.455987 101.791804 
L 108.567484 102.17927 
L 108.672423 102.17927 
L 108.783921 102.566384 
L 108.88886 102.566384 
L 109.000357 102.953115 
L 109.105296 102.953115 
L 109.216793 103.339434 
L 109.321732 103.339434 
L 109.43323 103.725314 
L 109.538169 103.725314 
L 109.649666 104.110728 
L 109.754605 104.110728 
L 109.866102 104.495649 
L 109.971041 104.495649 
L 110.082539 104.88005 
L 110.187478 104.88005 
L 110.298975 105.263906 
L 110.403914 105.263906 
L 110.515412 105.647192 
L 110.62035 105.647192 
L 110.731848 106.029885 
L 110.836787 106.029885 
L 110.948284 106.41196 
L 111.053223 106.41196 
L 111.164721 106.793395 
L 111.26966 106.793395 
L 111.381157 107.174168 
L 111.486096 107.174168 
L 111.597593 107.554258 
L 111.702532 107.554258 
L 111.81403 107.933643 
L 111.918969 107.933643 
L 112.030466 108.312304 
L 112.135405 108.312304 
L 112.246902 108.690221 
L 112.351841 108.690221 
L 112.463339 109.067375 
L 112.568278 109.067375 
L 112.679775 109.443749 
L 112.784714 109.443749 
L 112.896212 109.819326 
L 113.00115 109.819326 
L 113.112648 110.194088 
L 113.217587 110.194088 
L 113.329084 110.56802 
L 113.434023 110.56802 
L 113.545521 110.941106 
L 113.65046 110.941106 
L 113.761957 111.313332 
L 113.866896 111.313332 
L 113.978393 111.684683 
L 114.083332 111.684683 
L 114.19483 112.055148 
L 114.299769 112.055148 
L 114.411266 112.424712 
L 114.516205 112.424712 
L 114.627702 112.793364 
L 114.732641 112.793364 
L 114.844139 113.161093 
L 114.949078 113.161093 
L 115.060575 113.527887 
L 115.165514 113.527887 
L 115.277012 113.893738 
L 115.38195 113.893738 
L 115.493448 114.258635 
L 115.598387 114.258635 
L 115.709884 114.622569 
L 115.814823 114.622569 
L 115.926321 114.985533 
L 116.03126 114.985533 
L 116.142757 115.347518 
L 116.247696 115.347518 
L 116.359193 115.708518 
L 116.464132 115.708518 
L 116.57563 116.068525 
L 116.680569 116.068525 
L 116.792066 116.427535 
L 116.897005 116.427535 
L 117.008502 116.785541 
L 117.113441 116.785541 
L 117.224939 117.142539 
L 117.329878 117.142539 
L 117.441375 117.498524 
L 117.546314 117.498524 
L 117.657812 117.853493 
L 117.76275 117.853493 
L 117.874248 118.207442 
L 117.979187 118.207442 
L 118.090684 118.560368 
L 118.195623 118.560368 
L 118.307121 118.912269 
L 118.41206 118.912269 
L 118.523557 119.263143 
L 118.628496 119.263143 
L 118.739993 119.612989 
L 118.844932 119.612989 
L 118.95643 119.961805 
L 119.061369 119.961805 
L 119.172866 120.309592 
L 119.277805 120.309592 
L 119.389302 120.656349 
L 119.494241 120.656349 
L 119.605739 121.002076 
L 119.710678 121.002076 
L 119.822175 121.346774 
L 119.927114 121.346774 
L 120.038612 121.690445 
L 120.14355 121.690445 
L 120.255048 122.03309 
L 120.359987 122.03309 
L 120.471484 122.374711 
L 120.576423 122.374711 
L 120.687921 122.71531 
L 120.79286 122.71531 
L 120.904357 123.05489 
L 121.009296 123.05489 
L 121.120793 123.393455 
L 121.225732 123.393455 
L 121.33723 123.731007 
L 121.442169 123.731007 
L 121.553666 124.06755 
L 121.658605 124.06755 
L 121.770102 124.403089 
L 121.875041 124.403089 
L 121.986539 124.737628 
L 122.091478 124.737628 
L 122.202975 125.071172 
L 122.307914 125.071172 
L 122.419412 125.403726 
L 122.52435 125.403726 
L 122.635848 125.735295 
L 122.740787 125.735295 
L 122.852284 126.065885 
L 122.957223 126.065885 
L 123.068721 126.395502 
L 123.17366 126.395502 
L 123.285157 126.724152 
L 123.390096 126.724152 
L 123.501593 127.051842 
L 123.606532 127.051842 
L 123.71803 127.378578 
L 123.822969 127.378578 
L 123.934466 127.704367 
L 124.039405 127.704367 
L 124.150902 128.029217 
L 124.255841 128.029217 
L 124.367339 128.353134 
L 124.472278 128.353134 
L 124.583775 128.676126 
L 124.688714 128.676126 
L 124.800212 128.998201 
L 124.90515 128.998201 
L 125.016648 129.319367 
L 125.121587 129.319367 
L 125.233084 129.639631 
L 125.338023 129.639631 
L 125.449521 129.959001 
L 125.55446 129.959001 
L 125.665957 130.277487 
L 125.770896 130.277487 
L 125.882393 130.595095 
L 125.987332 130.595095 
L 126.09883 130.911835 
L 126.203769 130.911835 
L 126.315266 131.227715 
L 126.420205 131.227715 
L 126.531702 131.542742 
L 126.636641 131.542742 
L 126.748139 131.856926 
L 126.853078 131.856926 
L 126.964575 132.170276 
L 127.069514 132.170276 
L 127.181012 132.482798 
L 127.28595 132.482798 
L 127.397448 132.794503 
L 127.502387 132.794503 
L 127.613884 133.105398 
L 127.718823 133.105398 
L 127.830321 133.415492 
L 127.93526 133.415492 
L 128.046757 133.724793 
L 128.151696 133.724793 
L 128.263193 134.033309 
L 128.368132 134.033309 
L 128.47963 134.341048 
L 128.584569 134.341048 
L 128.696066 134.648018 
L 128.801005 134.648018 
L 128.912502 134.954227 
L 129.017441 134.954227 
L 129.128939 135.259683 
L 129.233878 135.259683 
L 129.345375 135.564394 
L 129.450314 135.564394 
L 129.561812 135.868366 
L 129.66675 135.868366 
L 129.778248 136.171607 
L 129.883187 136.171607 
L 129.994684 136.474124 
L 130.099623 136.474124 
L 130.211121 136.775924 
L 130.31606 136.775924 
L 130.427557 137.077014 
L 130.532496 137.077014 
L 130.643993 137.377399 
L 130.748932 137.377399 
L 130.86043 137.677087 
L 130.965369 137.677087 
L 131.076866 137.976084 
L 131.181805 137.976084 
L 131.293302 138.274394 
L 131.398241 138.274394 
L 131.509739 138.572025 
L 131.614678 138.572025 
L 131.726175 138.86898 
L 131.831114 138.86898 
L 131.942612 139.165266 
L 132.04755 139.165266 
L 132.159048 139.460887 
L 132.263987 139.460887 
L 132.375484 139.755848 
L 132.480423 139.755848 
L 132.591921 140.050154 
L 132.69686 140.050154 
L 132.808357 140.343807 
L 132.913296 140.343807 
L 133.024793 140.636814 
L 133.129732 140.636814 
L 133.24123 140.929176 
L 133.346169 140.929176 
L 133.457666 141.220898 
L 133.562605 141.220898 
L 133.674102 141.511983 
L 133.779041 141.511983 
L 133.890539 141.802433 
L 133.995478 141.802433 
L 134.106975 142.092252 
L 134.211914 142.092252 
L 134.323412 142.381443 
L 134.42835 142.381443 
L 134.539848 142.670007 
L 134.644787 142.670007 
L 134.756284 142.957946 
L 134.861223 142.957946 
L 134.972721 143.245263 
L 135.07766 143.245263 
L 135.189157 143.531959 
L 135.294096 143.531959 
L 135.405593 143.818037 
L 135.510532 143.818037 
L 135.62203 144.103496 
L 135.726969 144.103496 
L 135.838466 144.388338 
L 135.943405 144.388338 
L 136.054902 144.672565 
L 136.159841 144.672565 
L 136.271339 144.956176 
L 136.376278 144.956176 
L 136.487775 145.239173 
L 136.592714 145.239173 
L 136.704212 145.521556 
L 136.80915 145.521556 
L 136.920648 145.803325 
L 137.025587 145.803325 
L 137.137084 146.08448 
L 137.242023 146.08448 
L 137.353521 146.365022 
L 137.45846 146.365022 
L 137.569957 146.64495 
L 137.674896 146.64495 
L 137.786393 146.924263 
L 137.891332 146.924263 
L 138.00283 147.202962 
L 138.107769 147.202962 
L 138.219266 147.481045 
L 138.324205 147.481045 
L 138.435702 147.758513 
L 138.540641 147.758513 
L 138.652139 148.035364 
L 138.757078 148.035364 
L 138.868575 148.311598 
L 138.973514 148.311598 
L 139.085012 148.587213 
L 139.18995 148.587213 
L 139.301448 148.862208 
L 139.406387 148.862208 
L 139.517884 149.136582 
L 139.622823 149.136582 
L 139.734321 149.410334 
L 139.83926 149.410334 
L 139.950757 149.683463 
L 140.055696 149.683463 
L 140.167193 149.955966 
L 140.272132 149.955966 
L 140.38363 150.227844 
L 140.488569 150.227844 
L 140.600066 150.499093 
L 140.705005 150.499093 
L 140.816502 150.769712 
L 140.921441 150.769712 
L 141.032939 151.0397 
L 141.137878 151.0397 
L 141.249375 151.309056 
L 141.354314 151.309056 
L 141.465812 151.577776 
L 141.57075 151.577776 
L 141.682248 151.845859 
L 141.787187 151.845859 
L 141.898684 152.113303 
L 142.003623 152.113303 
L 142.115121 152.380107 
L 142.22006 152.380107 
L 142.331557 152.646268 
L 142.436496 152.646268 
L 142.547993 152.911785 
L 142.652932 152.911785 
L 142.76443 153.176654 
L 142.869369 153.176654 
L 142.980866 153.440875 
L 143.085805 153.440875 
L 143.197302 153.704444 
L 143.302241 153.704444 
L 143.413739 153.96736 
L 143.518678 153.96736 
L 143.630175 154.229621 
L 143.735114 154.229621 
L 143.846612 154.491223 
L 143.95155 154.491223 
L 144.063048 154.752166 
L 144.167987 154.752166 
L 144.279484 155.012447 
L 144.384423 155.012447 
L 144.495921 155.272063 
L 144.60086 155.272063 
L 144.712357 155.531012 
L 144.817296 155.531012 
L 144.928793 155.789293 
L 145.033732 155.789293 
L 145.14523 156.046901 
L 145.250169 156.046901 
L 145.361666 156.303836 
L 145.466605 156.303836 
L 145.578102 156.560095 
L 145.683041 156.560095 
L 145.794539 156.815675 
L 145.899478 156.815675 
L 146.010975 157.070574 
L 146.115914 157.070574 
L 146.227412 157.32479 
L 146.33235 157.32479 
L 146.443848 157.57832 
L 146.548787 157.57832 
L 146.660284 157.831162 
L 146.765223 157.831162 
L 146.876721 158.083314 
L 146.98166 158.083314 
L 147.093157 158.334773 
L 147.198096 158.334773 
L 147.309593 158.585536 
L 147.414532 158.585536 
L 147.52603 158.835602 
L 147.630969 158.835602 
L 147.742466 159.084968 
L 147.847405 159.084968 
L 147.958902 159.333632 
L 148.063841 159.333632 
L 148.175339 159.581591 
L 148.280278 159.581591 
L 148.391775 159.828843 
L 148.496714 159.828843 
L 148.608212 160.075385 
L 148.71315 160.075385 
L 148.824648 160.321215 
L 148.929587 160.321215 
L 149.041084 160.566332 
L 149.146023 160.566332 
L 149.257521 160.810731 
L 149.36246 160.810731 
L 149.473957 161.054413 
L 149.578896 161.054413 
L 149.690393 161.297373 
L 149.795332 161.297373 
L 149.90683 161.539609 
L 150.011769 161.539609 
L 150.123266 161.781121 
L 150.228205 161.781121 
L 150.339702 162.021904 
L 150.444641 162.021904 
L 150.556139 162.261957 
L 150.661078 162.261957 
L 150.772575 162.501279 
L 150.877514 162.501279 
L 150.989012 162.739865 
L 151.09395 162.739865 
L 151.205448 162.977715 
L 151.310387 162.977715 
L 151.421884 163.214826 
L 151.526823 163.214826 
L 151.638321 163.451196 
L 151.74326 163.451196 
L 151.854757 163.686823 
L 151.959696 163.686823 
L 152.071193 163.921705 
L 152.176132 163.921705 
L 152.28763 164.155839 
L 152.392569 164.155839 
L 152.504066 164.389224 
L 152.609005 164.389224 
L 152.720502 164.621858 
L 152.825441 164.621858 
L 152.936939 164.853738 
L 153.041878 164.853738 
L 153.153375 165.084862 
L 153.258314 165.084862 
L 153.369812 165.31523 
L 153.47475 165.31523 
L 153.586248 165.544837 
L 153.691187 165.544837 
L 153.802684 165.773684 
L 153.907623 165.773684 
L 154.019121 166.001767 
L 154.12406 166.001767 
L 154.235557 166.229086 
L 154.340496 166.229086 
L 154.451993 166.455637 
L 154.556932 166.455637 
L 154.66843 166.681419 
L 154.773369 166.681419 
L 154.884866 166.906431 
L 154.989805 166.906431 
L 155.101302 167.130671 
L 155.206241 167.130671 
L 155.317739 167.354136 
L 155.422678 167.354136 
L 155.534175 167.576825 
L 155.639114 167.576825 
L 155.750612 167.798736 
L 155.85555 167.798736 
L 155.967048 168.019868 
L 156.071987 168.019868 
L 156.183484 168.240219 
L 156.288423 168.240219 
L 156.399921 168.459787 
L 156.50486 168.459787 
L 156.616357 168.67857 
L 156.721296 168.67857 
L 156.832793 168.896567 
L 156.937732 168.896567 
L 157.04923 169.113777 
L 157.154169 169.113777 
L 157.265666 169.330197 
L 157.370605 169.330197 
L 157.482102 169.545826 
L 157.587041 169.545826 
L 157.698539 169.760663 
L 157.803478 169.760663 
L 157.914975 169.974706 
L 158.019914 169.974706 
L 158.131412 170.187953 
L 158.23635 170.187953 
L 158.347848 170.400403 
L 158.452787 170.400403 
L 158.564284 170.612056 
L 158.669223 170.612056 
L 158.780721 170.822908 
L 158.88566 170.822908 
L 158.997157 171.032958 
L 159.102096 171.032958 
L 159.213593 171.242207 
L 159.318532 171.242207 
L 159.43003 171.450651 
L 159.534969 171.450651 
L 159.646466 171.658289 
L 159.751405 171.658289 
L 159.862902 171.865121 
L 159.967841 171.865121 
L 160.079339 172.071145 
L 160.184278 172.071145 
L 160.295775 172.276359 
L 160.400714 172.276359 
L 160.512212 172.480763 
L 160.61715 172.480763 
L 160.728648 172.684354 
L 160.833587 172.684354 
L 160.945084 172.887133 
L 161.050023 172.887133 
L 161.161521 173.089097 
L 161.26646 173.089097 
L 161.377957 173.290246 
L 161.482896 173.290246 
L 161.594393 173.490579 
L 161.699332 173.490579 
L 161.81083 173.690094 
L 161.915769 173.690094 
L 162.027266 173.88879 
L 162.132205 173.88879 
L 162.243702 174.086667 
L 162.348641 174.086667 
L 162.460139 174.283723 
L 162.565078 174.283723 
L 162.676575 174.479958 
L 162.781514 174.479958 
L 162.893012 174.67537 
L 162.99795 174.67537 
L 163.109448 174.869959 
L 163.214387 174.869959 
L 163.325884 175.063725 
L 163.430823 175.063725 
L 163.542321 175.256666 
L 163.64726 175.256666 
L 163.758757 175.448781 
L 163.863696 175.448781 
L 163.975193 175.640071 
L 164.080132 175.640071 
L 164.19163 175.830534 
L 164.296569 175.830534 
L 164.408066 176.02017 
L 164.513005 176.02017 
L 164.624502 176.208979 
L 164.729441 176.208979 
L 164.840939 176.39696 
L 164.945878 176.39696 
L 165.057375 176.584113 
L 165.162314 176.584113 
L 165.273812 176.770438 
L 165.37875 176.770438 
L 165.490248 176.955934 
L 165.595187 176.955934 
L 165.706684 177.140602 
L 165.811623 177.140602 
L 165.923121 177.324442 
L 166.02806 177.324442 
L 166.139557 177.507453 
L 166.244496 177.507453 
L 166.355993 177.689636 
L 166.460932 177.689636 
L 166.57243 177.870991 
L 166.677369 177.870991 
L 166.788866 178.051519 
L 166.893805 178.051519 
L 167.005302 178.23122 
L 167.110241 178.23122 
L 167.221739 178.410095 
L 167.326678 178.410095 
L 167.438175 178.588144 
L 167.543114 178.588144 
L 167.654612 178.765368 
L 167.75955 178.765368 
L 167.871048 178.941769 
L 167.975987 178.941769 
L 168.087484 179.117347 
L 168.192423 179.117347 
L 168.303921 179.292104 
L 168.40886 179.292104 
L 168.520357 179.46604 
L 168.625296 179.46604 
L 168.736793 179.639158 
L 168.841732 179.639158 
L 168.95323 179.81146 
L 169.058169 179.81146 
L 169.169666 179.982946 
L 169.274605 179.982946 
L 169.386102 180.153618 
L 169.491041 180.153618 
L 169.602539 180.32348 
L 169.707478 180.32348 
L 169.818975 180.492532 
L 169.923914 180.492532 
L 170.035412 180.660778 
L 170.14035 180.660778 
L 170.251848 180.82822 
L 170.356787 180.82822 
L 170.468284 180.99486 
L 170.573223 180.99486 
L 170.684721 181.160702 
L 170.78966 181.160702 
L 170.901157 181.325748 
L 171.006096 181.325748 
L 171.117593 181.490002 
L 171.222532 181.490002 
L 171.33403 181.653466 
L 171.438969 181.653466 
L 171.550466 181.816145 
L 171.655405 181.816145 
L 171.766902 181.978042 
L 171.871841 181.978042 
L 171.983339 182.139161 
L 172.088278 182.139161 
L 172.199775 182.299506 
L 172.304714 182.299506 
L 172.416212 182.45908 
L 172.52115 182.45908 
L 172.632648 182.617889 
L 172.737587 182.617889 
L 172.849084 182.775936 
L 172.954023 182.775936 
L 173.065521 182.933227 
L 173.17046 182.933227 
L 173.281957 183.089765 
L 173.386896 183.089765 
L 173.498393 183.245556 
L 173.603332 183.245556 
L 173.71483 183.400605 
L 173.819769 183.400605 
L 173.931266 183.554917 
L 174.036205 183.554917 
L 174.147702 183.708496 
L 174.252641 183.708496 
L 174.364139 183.861349 
L 174.469078 183.861349 
L 174.580575 184.013482 
L 174.685514 184.013482 
L 174.797012 184.164898 
L 174.90195 184.164898 
L 175.013448 184.315606 
L 175.118387 184.315606 
L 175.229884 184.465609 
L 175.334823 184.465609 
L 175.446321 184.614914 
L 175.55126 184.614914 
L 175.662757 184.763528 
L 175.767696 184.763528 
L 175.879193 184.911455 
L 175.984132 184.911455 
L 176.09563 185.058704 
L 176.200569 185.058704 
L 176.312066 185.205279 
L 176.417005 185.205279 
L 176.528502 185.351187 
L 176.633441 185.351187 
L 176.744939 185.496435 
L 176.849878 185.496435 
L 176.961375 185.64103 
L 177.066314 185.64103 
L 177.177812 185.784977 
L 177.28275 185.784977 
L 177.394248 185.928285 
L 177.499187 185.928285 
L 177.610684 186.070959 
L 177.715623 186.070959 
L 177.827121 186.213007 
L 177.93206 186.213007 
L 178.043557 186.354436 
L 178.148496 186.354436 
L 178.259993 186.495253 
L 178.364932 186.495253 
L 178.47643 186.635465 
L 178.581369 186.635465 
L 178.692866 186.77508 
L 178.797805 186.77508 
L 178.909302 186.914106 
L 179.014241 186.914106 
L 179.125739 187.052549 
L 179.230678 187.052549 
L 179.342175 187.190417 
L 179.447114 187.190417 
L 179.558612 187.327719 
L 179.66355 187.327719 
L 179.775048 187.464462 
L 179.879987 187.464462 
L 179.991484 187.600654 
L 180.096423 187.600654 
L 180.207921 187.736304 
L 180.31286 187.736304 
L 180.424357 187.871419 
L 180.529296 187.871419 
L 180.640793 188.006008 
L 180.745732 188.006008 
L 180.85723 188.14008 
L 180.962169 188.14008 
L 181.073666 188.273644 
L 181.178605 188.273644 
L 181.290102 188.406708 
L 181.395041 188.406708 
L 181.506539 188.53928 
L 181.611478 188.53928 
L 181.722975 188.671372 
L 181.827914 188.671372 
L 181.939412 188.80299 
L 182.04435 188.80299 
L 182.155848 188.934145 
L 182.260787 188.934145 
L 182.372284 189.064847 
L 182.477223 189.064847 
L 182.588721 189.195104 
L 182.69366 189.195104 
L 182.805157 189.324927 
L 182.910096 189.324927 
L 183.021593 189.454325 
L 183.126532 189.454325 
L 183.23803 189.58331 
L 183.342969 189.58331 
L 183.454466 189.71189 
L 183.559405 189.71189 
L 183.670902 189.840076 
L 183.775841 189.840076 
L 183.887339 189.96788 
L 183.992278 189.96788 
L 184.103775 190.09531 
L 184.208714 190.09531 
L 184.320212 190.22238 
L 184.42515 190.22238 
L 184.536648 190.349098 
L 184.641587 190.349098 
L 184.753084 190.475477 
L 184.858023 190.475477 
L 184.969521 190.601527 
L 185.07446 190.601527 
L 185.185957 190.727261 
L 185.290896 190.727261 
L 185.402393 190.852689 
L 185.507332 190.852689 
L 185.61883 190.977824 
L 185.723769 190.977824 
L 185.835266 191.102676 
L 185.940205 191.102676 
L 186.051702 191.227259 
L 186.156641 191.227259 
L 186.268139 191.351585 
L 186.373078 191.351585 
L 186.484575 191.475665 
L 186.589514 191.475665 
L 186.701012 191.599513 
L 186.80595 191.599513 
L 186.917448 191.72314 
L 187.022387 191.72314 
L 187.133884 191.84656 
L 187.238823 191.84656 
L 187.350321 191.969785 
L 187.45526 191.969785 
L 187.566757 192.092829 
L 187.671696 192.092829 
L 187.783193 192.215704 
L 187.888132 192.215704 
L 187.99963 192.338424 
L 188.104569 192.338424 
L 188.216066 192.461002 
L 188.321005 192.461002 
L 188.432502 192.583452 
L 188.537441 192.583452 
L 188.648939 192.705787 
L 188.753878 192.705787 
L 188.865375 192.828021 
L 188.970314 192.828021 
L 189.081812 192.950168 
L 189.18675 192.950168 
L 189.298248 193.072242 
L 189.403187 193.072242 
L 189.514684 193.194257 
L 189.619623 193.194257 
L 189.731121 193.316227 
L 189.83606 193.316227 
L 189.947557 193.438167 
L 190.052496 193.438167 
L 190.163993 193.560091 
L 190.268932 193.560091 
L 190.38043 193.682012 
L 190.485369 193.682012 
L 190.596866 193.803947 
L 190.701805 193.803947 
L 190.813302 193.925909 
L 190.918241 193.925909 
L 191.029739 194.047912 
L 191.134678 194.047912 
L 191.246175 194.169973 
L 191.351114 194.169973 
L 191.462612 194.292105 
L 191.56755 194.292105 
L 191.679048 194.414324 
L 191.783987 194.414324 
L 191.895484 194.536644 
L 192.000423 194.536644 
L 192.111921 194.65908 
L 192.21686 194.65908 
L 192.328357 194.781647 
L 192.433296 194.781647 
L 192.544793 194.90436 
L 192.649732 194.90436 
L 192.76123 195.027234 
L 192.866169 195.027234 
L 192.977666 195.150284 
L 193.082605 195.150284 
L 193.194102 195.273525 
L 193.299041 195.273525 
L 193.410539 195.396972 
L 193.515478 195.396972 
L 193.626975 195.520639 
L 193.731914 195.520639 
L 193.843412 195.644542 
L 193.94835 195.644542 
L 194.059848 195.768696 
L 194.164787 195.768696 
L 194.276284 195.893114 
L 194.381223 195.893114 
L 194.492721 196.017813 
L 194.59766 196.017813 
L 194.709157 196.142807 
L 194.814096 196.142807 
L 194.925593 196.268111 
L 195.030532 196.268111 
L 195.14203 196.393738 
L 195.246969 196.393738 
L 195.358466 196.519705 
L 195.463405 196.519705 
L 195.574902 196.646023 
L 195.679841 196.646023 
L 195.791339 196.772709 
L 195.896278 196.772709 
L 196.007775 196.899777 
L 196.112714 196.899777 
L 196.224212 197.02724 
L 196.32915 197.02724 
L 196.440648 197.155112 
L 196.545587 197.155112 
L 196.657084 197.283407 
L 196.762023 197.283407 
L 196.873521 197.412139 
L 196.97846 197.412139 
L 197.089957 197.541322 
L 197.194896 197.541322 
L 197.306393 197.670968 
L 197.411332 197.670968 
L 197.52283 197.801091 
L 197.627769 197.801091 
L 197.739266 197.931703 
L 197.844205 197.931703 
L 197.955702 198.062819 
L 198.060641 198.062819 
L 198.172139 198.19445 
L 198.277078 198.19445 
L 198.388575 198.326609 
L 198.493514 198.326609 
L 198.605012 198.459307 
L 198.70995 198.459307 
L 198.821448 198.592558 
L 198.926387 198.592558 
L 199.037884 198.726373 
L 199.142823 198.726373 
L 199.254321 198.860763 
L 199.35926 198.860763 
L 199.470757 198.99574 
L 199.575696 198.99574 
L 199.687193 199.131315 
L 199.792132 199.131315 
L 199.90363 199.2675 
L 200.008569 199.2675 
L 200.120066 199.404305 
L 200.225005 199.404305 
L 200.336502 199.54174 
L 200.441441 199.54174 
L 200.552939 199.679816 
L 200.657878 199.679816 
L 200.769375 199.818543 
L 200.874314 199.818543 
L 200.985812 199.957931 
L 201.09075 199.957931 
L 201.202248 200.097989 
L 201.307187 200.097989 
L 201.418684 200.238728 
L 201.523623 200.238728 
L 201.635121 200.380155 
L 201.74006 200.380155 
L 201.851557 200.522281 
L 201.956496 200.522281 
L 202.067993 200.665113 
L 202.172932 200.665113 
L 202.28443 200.80866 
L 202.389369 200.80866 
L 202.500866 200.952931 
L 202.605805 200.952931 
L 202.717302 201.097932 
L 202.822241 201.097932 
L 202.933739 201.243673 
L 203.038678 201.243673 
L 203.150175 201.390161 
L 203.255114 201.390161 
L 203.366612 201.537402 
L 203.47155 201.537402 
L 203.583048 201.685404 
L 203.687987 201.685404 
L 203.799484 201.834174 
L 203.904423 201.834174 
L 204.015921 201.983718 
L 204.12086 201.983718 
L 204.232357 202.134043 
L 204.337296 202.134043 
L 204.448793 202.285154 
L 204.553732 202.285154 
L 204.66523 202.437058 
L 204.770169 202.437058 
L 204.881666 202.589761 
L 204.986605 202.589761 
L 205.098102 202.743267 
L 205.203041 202.743267 
L 205.314539 202.897583 
L 205.419478 202.897583 
L 205.530975 203.052713 
L 205.635914 203.052713 
L 205.747412 203.208663 
L 205.85235 203.208663 
L 205.963848 203.365436 
L 206.068787 203.365436 
L 206.180284 203.523037 
L 206.285223 203.523037 
L 206.396721 203.681472 
L 206.50166 203.681472 
L 206.613157 203.840742 
L 206.718096 203.840742 
L 206.829593 204.000853 
L 206.934532 204.000853 
L 207.04603 204.161809 
L 207.150969 204.161809 
L 207.262466 204.323612 
L 207.367405 204.323612 
L 207.478902 204.486266 
L 207.583841 204.486266 
L 207.695339 204.649773 
L 207.800278 204.649773 
L 207.911775 204.814138 
L 208.016714 204.814138 
L 208.128212 204.979362 
L 208.23315 204.979362 
L 208.344648 205.145448 
L 208.449587 205.145448 
L 208.561084 205.312399 
L 208.666023 205.312399 
L 208.777521 205.480215 
L 208.88246 205.480215 
L 208.993957 205.648901 
L 209.098896 205.648901 
L 209.210393 205.818456 
L 209.315332 205.818456 
L 209.42683 205.988883 
L 209.531769 205.988883 
L 209.643266 206.160184 
L 209.748205 206.160184 
L 209.859702 206.332358 
L 209.964641 206.332358 
L 210.076139 206.505408 
L 210.181078 206.505408 
L 210.292575 206.679335 
L 210.397514 206.679335 
L 210.509012 206.854138 
L 210.61395 206.854138 
L 210.725448 207.029818 
L 210.830387 207.029818 
L 210.941884 207.206376 
L 211.046823 207.206376 
L 211.158321 207.383811 
L 211.26326 207.383811 
L 211.374757 207.562123 
L 211.479696 207.562123 
L 211.591193 207.741313 
L 211.696132 207.741313 
L 211.80763 207.921379 
L 211.912569 207.921379 
L 212.024066 208.10232 
L 212.129005 208.10232 
L 212.240502 208.284137 
L 212.345441 208.284137 
L 212.456939 208.466827 
L 212.561878 208.466827 
L 212.673375 208.650389 
L 212.778314 208.650389 
L 212.889812 208.834822 
L 212.99475 208.834822 
L 213.106248 209.020125 
L 213.211187 209.020125 
L 213.322684 209.206294 
L 213.427623 209.206294 
L 213.539121 209.393329 
L 213.64406 209.393329 
L 213.755557 209.581227 
L 213.860496 209.581227 
L 213.971993 209.769984 
L 214.076932 209.769984 
L 214.18843 209.9596 
L 214.293369 209.9596 
L 214.404866 210.15007 
L 214.509805 210.15007 
L 214.621302 210.341392 
L 214.726241 210.341392 
L 214.837739 210.533563 
L 214.942678 210.533563 
L 215.054175 210.726579 
L 215.159114 210.726579 
L 215.270612 210.920436 
L 215.37555 210.920436 
L 215.487048 211.115131 
L 215.591987 211.115131 
L 215.703484 211.31066 
L 215.808423 211.31066 
L 215.919921 211.507019 
L 216.02486 211.507019 
L 216.136357 211.704203 
L 216.241296 211.704203 
L 216.352793 211.902209 
L 216.457732 211.902209 
L 216.56923 212.10103 
L 216.674169 212.10103 
L 216.785666 212.300664 
L 216.890605 212.300664 
L 217.002102 212.501104 
L 217.107041 212.501104 
L 217.218539 212.702345 
L 217.323478 212.702345 
L 217.434975 212.904383 
L 217.539914 212.904383 
L 217.651412 213.107211 
L 217.75635 213.107211 
L 217.867848 213.310826 
L 217.972787 213.310826 
L 218.084284 213.51522 
L 218.189223 213.51522 
L 218.300721 213.720388 
L 218.40566 213.720388 
L 218.517157 213.926325 
L 218.622096 213.926325 
L 218.733593 214.133023 
L 218.838532 214.133023 
L 218.95003 214.340478 
L 219.054969 214.340478 
L 219.166466 214.548682 
L 219.271405 214.548682 
L 219.382902 214.75763 
L 219.487841 214.75763 
L 219.599339 214.967314 
L 219.704278 214.967314 
L 219.815775 215.177729 
L 219.920714 215.177729 
L 220.032212 215.388867 
L 220.13715 215.388867 
L 220.248648 215.600722 
L 220.353587 215.600722 
L 220.465084 215.813288 
L 220.570023 215.813288 
L 220.681521 216.026556 
L 220.78646 216.026556 
L 220.897957 216.240521 
L 221.002896 216.240521 
L 221.114393 216.455174 
L 221.219332 216.455174 
L 221.33083 216.670509 
L 221.435769 216.670509 
L 221.547266 216.886519 
L 221.652205 216.886519 
L 221.763702 217.103195 
L 221.868641 217.103195 
L 221.980139 217.320532 
L 222.085078 217.320532 
L 222.196575 217.538521 
L 222.301514 217.538521 
L 222.413012 217.757155 
L 222.51795 217.757155 
L 222.629448 217.976426 
L 222.734387 217.976426 
L 222.845884 218.196327 
L 222.950823 218.196327 
L 223.062321 218.41685 
L 223.16726 218.41685 
L 223.278757 218.637986 
L 223.383696 218.637986 
L 223.495193 218.859729 
L 223.600132 218.859729 
L 223.71163 219.08207 
L 223.816569 219.08207 
L 223.928066 219.305002 
L 224.033005 219.305002 
L 224.144502 219.528516 
L 224.249441 219.528516 
L 224.360939 219.752604 
L 224.465878 219.752604 
L 224.577375 219.977259 
L 224.682314 219.977259 
L 224.793812 220.202473 
L 224.89875 220.202473 
L 225.010248 220.428236 
L 225.115187 220.428236 
L 225.226684 220.654541 
L 225.331623 220.654541 
L 225.443121 220.881379 
L 225.54806 220.881379 
L 225.659557 221.108742 
L 225.764496 221.108742 
L 225.875993 221.336622 
L 225.980932 221.336622 
L 226.09243 221.56501 
L 226.197369 221.56501 
L 226.308866 221.793898 
L 226.413805 221.793898 
L 226.525302 222.023277 
L 226.630241 222.023277 
L 226.741739 222.253138 
L 226.846678 222.253138 
L 226.958175 222.483473 
L 227.063114 222.483473 
L 227.174612 222.714273 
L 227.27955 222.714273 
L 227.391048 222.94553 
L 227.495987 222.94553 
L 227.607484 223.177233 
L 227.712423 223.177233 
L 227.823921 223.409375 
L 227.92886 223.409375 
L 228.040357 223.641946 
L 228.145296 223.641946 
L 228.256793 223.874938 
L 228.361732 223.874938 
L 228.47323 224.108341 
L 228.578169 224.108341 
L 228.689666 224.342146 
L 228.794605 224.342146 
L 228.906102 224.576344 
L 229.011041 224.576344 
L 229.122539 224.810925 
L 229.227478 224.810925 
L 229.338975 225.045881 
L 229.443914 225.045881 
L 229.555412 225.281203 
L 229.66035 225.281203 
L 229.771848 225.516881 
L 229.876787 225.516881 
L 229.988284 225.752905 
L 230.093223 225.752905 
L 230.204721 225.989267 
L 230.30966 225.989267 
L 230.421157 226.225955 
L 230.526096 226.225955 
L 230.637593 226.462962 
L 230.742532 226.462962 
L 230.85403 226.700277 
L 230.958969 226.700277 
L 231.070466 226.937891 
L 231.175405 226.937891 
L 231.286902 227.175794 
L 231.391841 227.175794 
L 231.503339 227.413976 
L 231.608278 227.413976 
L 231.719775 227.652428 
L 231.824714 227.652428 
L 231.936212 227.891141 
L 232.04115 227.891141 
L 232.152648 228.130104 
L 232.257587 228.130104 
L 232.369084 228.369307 
L 232.474023 228.369307 
L 232.585521 228.608741 
L 232.69046 228.608741 
L 232.801957 228.848395 
L 232.906896 228.848395 
L 233.018393 229.088261 
L 233.123332 229.088261 
L 233.23483 229.328329 
L 233.339769 229.328329 
L 233.451266 229.568587 
L 233.556205 229.568587 
L 233.667702 229.809026 
L 233.772641 229.809027 
L 233.884139 230.049638 
L 233.989078 230.049638 
L 234.100575 230.29041 
L 234.205514 230.29041 
L 234.317012 230.531334 
L 234.42195 230.531334 
L 234.533448 230.7724 
L 234.638387 230.7724 
L 234.749884 231.013597 
L 234.854823 231.013597 
L 234.966321 231.254916 
L 235.07126 231.254916 
L 235.182757 231.496348 
L 235.287696 231.496348 
L 235.399193 231.737881 
L 235.504132 231.737881 
L 235.61563 231.979507 
L 235.720569 231.979507 
L 235.832066 232.221216 
L 235.937005 232.221216 
L 236.048502 232.462998 
L 236.153441 232.462998 
L 236.264939 232.704842 
L 236.369878 232.704842 
L 236.481375 232.94674 
L 236.586314 232.94674 
L 236.697812 233.188682 
L 236.80275 233.188682 
L 236.914248 233.430658 
L 237.019187 233.430658 
L 237.130684 233.672658 
L 237.235623 233.672658 
L 237.347121 233.914673 
L 237.45206 233.914673 
L 237.563557 234.156694 
L 237.668496 234.156694 
L 237.779993 234.39871 
L 237.884932 234.39871 
L 237.99643 234.640712 
L 238.101369 234.640712 
L 238.212866 234.882692 
L 238.317805 234.882692 
L 238.429302 235.124638 
L 238.534241 235.124638 
L 238.645739 235.366543 
L 238.750678 235.366543 
L 238.862175 235.608397 
L 238.967114 235.608397 
L 239.078612 235.850191 
L 239.18355 235.850191 
L 239.295048 236.091916 
L 239.399987 236.091916 
L 239.511484 236.333561 
L 239.616423 236.333561 
L 239.727921 236.57512 
L 239.83286 236.57512 
L 239.944357 236.816581 
L 240.049296 236.816581 
L 240.160793 237.057937 
L 240.265732 237.057937 
L 240.37723 237.299179 
L 240.482169 237.299179 
L 240.593666 237.540297 
L 240.698605 237.540297 
L 240.810102 237.781283 
L 240.915041 237.781283 
L 241.026539 238.022129 
L 241.131478 238.022129 
L 241.242975 238.262825 
L 241.347914 238.262825 
L 241.459412 238.503363 
L 241.56435 238.503363 
L 241.675848 238.743734 
L 241.780787 238.743734 
L 241.892284 238.983931 
L 241.997223 238.983931 
L 242.108721 239.223944 
L 242.21366 239.223944 
L 242.325157 239.463765 
L 242.430096 239.463765 
L 242.541593 239.703385 
L 242.646532 239.703385 
L 242.75803 239.942798 
L 242.862969 239.942798 
L 242.974466 240.181994 
L 243.079405 240.181994 
L 243.190902 240.420965 
L 243.295841 240.420965 
L 243.407339 240.659703 
L 243.512278 240.659703 
L 243.623775 240.8982 
L 243.728714 240.8982 
L 243.840212 241.136448 
L 243.94515 241.136448 
L 244.056648 241.37444 
L 244.161587 241.37444 
L 244.273084 241.612166 
L 244.378023 241.612166 
L 244.489521 241.849621 
L 244.59446 241.849621 
L 244.705957 242.086796 
L 244.810896 242.086796 
L 244.922393 242.323682 
L 245.027332 242.323682 
L 245.13883 242.560274 
L 245.243769 242.560274 
L 245.355266 242.796562 
L 245.460205 242.796562 
L 245.571702 243.03254 
L 245.676641 243.03254 
L 245.788139 243.268199 
L 245.893078 243.268199 
L 246.004575 243.503533 
L 246.109514 243.503533 
L 246.221012 243.738535 
L 246.32595 243.738535 
L 246.437448 243.973196 
L 246.542387 243.973196 
L 246.653884 244.207511 
L 246.758823 244.207511 
L 246.870321 244.441472 
L 246.97526 244.441472 
L 247.086757 244.675071 
L 247.191696 244.675071 
L 247.303193 244.908302 
L 247.408132 244.908302 
L 247.51963 245.141158 
L 247.624569 245.141158 
L 247.736066 245.373632 
L 247.841005 245.373632 
L 247.952502 245.605718 
L 248.057441 245.605718 
L 248.168939 245.837407 
L 248.273878 245.837407 
L 248.385375 246.068694 
L 248.490314 246.068694 
L 248.601812 246.299573 
L 248.70675 246.299573 
L 248.818248 246.530035 
L 248.923187 246.530035 
L 249.034684 246.760076 
L 249.139623 246.760076 
L 249.251121 246.989688 
L 249.35606 246.989688 
L 249.467557 247.218866 
L 249.572496 247.218866 
L 249.683993 247.447602 
L 249.788932 247.447602 
L 249.90043 247.675891 
L 250.005369 247.675891 
L 250.116866 247.903726 
L 250.221805 247.903726 
L 250.333302 248.131102 
L 250.438241 248.131102 
L 250.549739 248.358011 
L 250.654678 248.358011 
L 250.766175 248.584449 
L 250.871114 248.584449 
L 250.982612 248.810409 
L 251.08755 248.810409 
L 251.199048 249.035885 
L 251.303987 249.035885 
L 251.415484 249.260872 
L 251.520423 249.260872 
L 251.631921 249.485363 
L 251.73686 249.485363 
L 251.848357 249.709353 
L 251.953296 249.709353 
L 252.064793 249.932837 
L 252.169732 249.932837 
L 252.28123 250.155809 
L 252.386169 250.155809 
L 252.497666 250.378263 
L 252.602605 250.378263 
L 252.714102 250.600194 
L 252.819041 250.600194 
L 252.930539 250.821597 
L 253.035478 250.821597 
L 253.146975 251.042467 
L 253.251914 251.042467 
L 253.363412 251.262798 
L 253.46835 251.262798 
L 253.579848 251.482586 
L 253.684787 251.482586 
L 253.796284 251.701824 
L 253.901223 251.701824 
L 254.012721 251.92051 
L 254.11766 251.92051 
L 254.229157 252.138636 
L 254.334096 252.138636 
L 254.445593 252.356199 
L 254.550532 252.356199 
L 254.66203 252.573193 
L 254.766969 252.573193 
L 254.878466 252.789615 
L 254.983405 252.789615 
L 255.094902 253.005459 
L 255.199841 253.005459 
L 255.311339 253.22072 
L 255.416278 253.22072 
L 255.527775 253.435395 
L 255.632714 253.435395 
L 255.744212 253.649479 
L 255.84915 253.649479 
L 255.960648 253.862967 
L 256.065587 253.862967 
L 256.177084 254.075855 
L 256.282023 254.075855 
L 256.393521 254.288139 
L 256.49846 254.288139 
L 256.609957 254.499815 
L 256.714896 254.499815 
L 256.826393 254.710879 
L 256.931332 254.710879 
L 257.04283 254.921327 
L 257.147769 254.921327 
L 257.259266 255.131154 
L 257.364205 255.131154 
L 257.475702 255.340357 
L 257.580641 255.340357 
L 257.692139 255.548933 
L 257.797078 255.548933 
L 257.908575 255.756877 
L 258.013514 255.756877 
L 258.125012 255.964185 
L 258.22995 255.964185 
L 258.341448 256.170855 
L 258.446387 256.170855 
L 258.557884 256.376882 
L 258.662823 256.376882 
L 258.774321 256.582264 
L 258.87926 256.582264 
L 258.990757 256.786997 
L 259.095696 256.786997 
L 259.207193 256.991077 
L 259.312132 256.991077 
L 259.42363 257.194502 
L 259.528569 257.194502 
L 259.640066 257.397269 
L 259.745005 257.397269 
L 259.856502 257.599374 
L 259.961441 257.599374 
L 260.072939 257.800814 
L 260.177878 257.800814 
L 260.289375 258.001586 
L 260.394314 258.001586 
L 260.505812 258.201688 
L 260.61075 258.201688 
L 260.722248 258.401118 
L 260.827187 258.401118 
L 260.938684 258.599871 
L 261.043623 258.599871 
L 261.155121 258.797946 
L 261.26006 258.797946 
L 261.371557 258.99534 
L 261.476496 258.99534 
L 261.587993 259.192051 
L 261.692932 259.192051 
L 261.80443 259.388076 
L 261.909369 259.388076 
L 262.020866 259.583413 
L 262.125805 259.583413 
L 262.237302 259.778059 
L 262.342241 259.778059 
L 262.453739 259.972013 
L 262.558678 259.972013 
L 262.670175 260.165273 
L 262.775114 260.165273 
L 262.886612 260.357836 
L 262.99155 260.357836 
L 263.103048 260.549701 
L 263.207987 260.549701 
L 263.319484 260.740865 
L 263.424423 260.740865 
L 263.535921 260.931326 
L 263.64086 260.931326 
L 263.752357 261.121083 
L 263.857296 261.121083 
L 263.968793 261.310135 
L 264.073732 261.310135 
L 264.18523 261.49848 
L 264.290169 261.49848 
L 264.401666 261.686116 
L 264.506605 261.686116 
L 264.618102 261.873042 
L 264.723041 261.873042 
L 264.834539 262.059256 
L 264.939478 262.059256 
L 265.050975 262.244758 
L 265.155914 262.244758 
L 265.267412 262.429545 
L 265.37235 262.429545 
L 265.483848 262.613617 
L 265.588787 262.613617 
L 265.700284 262.796973 
L 265.805223 262.796973 
L 265.916721 262.979611 
L 266.02166 262.979611 
L 266.133157 263.161531 
L 266.238096 263.161531 
L 266.349593 263.342732 
L 266.454532 263.342732 
L 266.56603 263.523212 
L 266.670969 263.523212 
L 266.782466 263.702971 
L 266.887405 263.702971 
L 266.998902 263.882008 
L 267.103841 263.882008 
L 267.215339 264.060323 
L 267.320278 264.060323 
L 267.431775 264.237915 
L 267.536714 264.237915 
L 267.648212 264.414783 
L 267.75315 264.414783 
L 267.864648 264.590927 
L 267.969587 264.590927 
L 268.081084 264.766347 
L 268.186023 264.766347 
L 268.297521 264.941043 
L 268.40246 264.941043 
L 268.513957 265.115013 
L 268.618896 265.115013 
L 268.730393 265.288259 
L 268.835332 265.288259 
L 268.94683 265.460778 
L 269.051769 265.460778 
L 269.163266 265.632573 
L 269.268205 265.632573 
L 269.379702 265.803642 
L 269.484641 265.803642 
L 269.596139 265.973985 
L 269.701078 265.973985 
L 269.812575 266.143603 
L 269.917514 266.143603 
L 270.029012 266.312496 
L 270.13395 266.312496 
L 270.245448 266.480664 
L 270.350387 266.480664 
L 270.461884 266.648107 
L 270.566823 266.648107 
L 270.678321 266.814826 
L 270.78326 266.814826 
L 270.894757 266.98082 
L 270.999696 266.98082 
L 271.111193 267.146089 
L 271.216132 267.146089 
L 271.32763 267.310635 
L 271.432569 267.310635 
L 271.544066 267.474458 
L 271.649005 267.474458 
L 271.760502 267.637558 
L 271.865441 267.637558 
L 271.976939 267.799937 
L 272.081878 267.799937 
L 272.193375 267.961593 
L 272.298314 267.961593 
L 272.409812 268.122529 
L 272.51475 268.122529 
L 272.626248 268.282745 
L 272.731187 268.282745 
L 272.842684 268.442241 
L 272.947623 268.442241 
L 273.059121 268.601019 
L 273.16406 268.601019 
L 273.275557 268.75908 
L 273.380496 268.75908 
L 273.491993 268.916424 
L 273.596932 268.916424 
L 273.70843 269.073052 
L 273.813369 269.073052 
L 273.924866 269.228965 
L 274.029805 269.228965 
L 274.141302 269.384164 
L 274.246241 269.384164 
L 274.357739 269.53865 
L 274.462678 269.53865 
L 274.574175 269.692425 
L 274.679114 269.692425 
L 274.790612 269.845489 
L 274.89555 269.845489 
L 275.007048 269.997844 
L 275.111987 269.997844 
L 275.223484 270.149491 
L 275.328423 270.149491 
L 275.439921 270.30043 
L 275.54486 270.30043 
L 275.656357 270.450665 
L 275.761296 270.450665 
L 275.872793 270.600195 
L 275.977732 270.600195 
L 276.08923 270.749023 
L 276.194169 270.749023 
L 276.305666 270.897149 
L 276.410605 270.897149 
L 276.522102 271.044575 
L 276.627041 271.044575 
L 276.738539 271.191302 
L 276.843478 271.191302 
L 276.954975 271.337333 
L 277.059914 271.337333 
L 277.171412 271.482668 
L 277.27635 271.482668 
L 277.387848 271.627309 
L 277.492787 271.627309 
L 277.604284 271.771258 
L 277.709223 271.771258 
L 277.820721 271.914516 
L 277.92566 271.914516 
L 278.037157 272.057085 
L 278.142096 272.057085 
L 278.253593 272.198966 
L 278.358532 272.198966 
L 278.47003 272.340161 
L 278.574969 272.340161 
L 278.686466 272.480673 
L 278.791405 272.480673 
L 278.902902 272.620502 
L 279.007841 272.620502 
L 279.119339 272.75965 
L 279.224278 272.75965 
L 279.335775 272.898119 
L 279.440714 272.898119 
L 279.552212 273.035912 
L 279.65715 273.035912 
L 279.768648 273.17303 
L 279.873587 273.17303 
L 279.985084 273.309474 
L 280.090023 273.309474 
L 280.201521 273.445247 
L 280.30646 273.445247 
L 280.417957 273.58035 
L 280.522896 273.58035 
L 280.634393 273.714786 
L 280.739332 273.714786 
L 280.85083 273.848556 
L 280.955769 273.848556 
L 281.067266 273.981663 
L 281.172205 273.981663 
L 281.283702 274.114108 
L 281.388641 274.114108 
L 281.500139 274.245893 
L 281.605078 274.245893 
L 281.716575 274.37702 
L 281.821514 274.37702 
L 281.933012 274.507491 
L 282.03795 274.507491 
L 282.149448 274.637309 
L 282.254387 274.637309 
L 282.365884 274.766475 
L 282.470823 274.766475 
L 282.582321 274.894992 
L 282.68726 274.894992 
L 282.798757 275.022861 
L 282.903696 275.022861 
L 283.015193 275.150085 
L 283.120132 275.150085 
L 283.23163 275.276666 
L 283.336569 275.276666 
L 283.448066 275.402605 
L 283.553005 275.402605 
L 283.664502 275.527905 
L 283.769441 275.527905 
L 283.880939 275.652568 
L 283.985878 275.652568 
L 284.097375 275.776596 
L 284.202314 275.776596 
L 284.313812 275.899992 
L 284.41875 275.899992 
L 284.530248 276.022757 
L 284.635187 276.022757 
L 284.746684 276.144894 
L 284.851623 276.144894 
L 284.963121 276.266405 
L 285.06806 276.266405 
L 285.179557 276.387291 
L 285.284496 276.387291 
L 285.395993 276.507557 
L 285.500932 276.507557 
L 285.61243 276.627202 
L 285.717369 276.627202 
L 285.828866 276.746229 
L 285.933805 276.746229 
L 286.045302 276.864641 
L 286.150241 276.864641 
L 286.261739 276.98244 
L 286.366678 276.98244 
L 286.478175 277.099628 
L 286.583114 277.099628 
L 286.694612 277.216207 
L 286.79955 277.216207 
L 286.911048 277.332179 
L 287.015987 277.332179 
L 287.127484 277.447547 
L 287.232423 277.447547 
L 287.343921 277.562312 
L 287.44886 277.562312 
L 287.560357 277.676478 
L 287.665296 277.676478 
L 287.776793 277.790046 
L 287.881732 277.790046 
L 287.99323 277.903018 
L 288.098169 277.903018 
L 288.209666 278.015396 
L 288.314605 278.015396 
L 288.426102 278.127184 
L 288.531041 278.127184 
L 288.642539 278.238383 
L 288.963914 278.348994 
L 289.075412 278.459022 
L 289.396787 278.568466 
L 289.508284 278.67733 
L 289.82966 278.785616 
L 289.941157 278.893327 
L 290.262532 279.000464 
L 290.37403 279.107029 
L 290.695405 279.213025 
L 290.806902 279.318453 
L 291.128278 279.423317 
L 291.239775 279.527619 
L 291.56115 279.631359 
L 291.672648 279.734542 
L 291.994023 279.837167 
L 292.105521 279.939239 
L 292.426896 280.040758 
L 292.538393 280.141728 
L 292.859769 280.24215 
L 292.971266 280.342026 
L 293.292641 280.441359 
L 293.404139 280.540151 
L 293.725514 280.638404 
L 293.837012 280.73612 
L 294.158387 280.833301 
L 294.269884 280.92995 
L 294.59126 281.026067 
L 294.702757 281.121657 
L 295.024132 281.216721 
L 295.13563 281.31126 
L 295.457005 281.405277 
L 295.568502 281.498773 
L 295.889878 281.591752 
L 296.001375 281.684216 
L 296.32275 281.776165 
L 296.434248 281.867603 
L 296.755623 281.958531 
L 296.867121 282.048952 
L 297.188496 282.138868 
L 297.299993 282.22828 
L 297.621369 282.317191 
L 297.732866 282.405603 
L 298.054241 282.493518 
L 298.165739 282.580937 
L 298.487114 282.667864 
L 298.598612 282.7543 
L 298.919987 282.840246 
L 299.031484 282.925706 
L 299.35286 283.010681 
L 299.464357 283.095173 
L 299.785732 283.179184 
L 299.89723 283.262717 
L 300.218605 283.345773 
L 300.330102 283.428354 
L 300.651478 283.510464 
L 300.762975 283.592102 
L 301.08435 283.673273 
L 301.195848 283.753977 
L 301.517223 283.834216 
L 301.628721 283.913993 
L 301.950096 283.99331 
L 302.061593 284.072169 
L 302.382969 284.150571 
L 302.501025 284.228519 
L 302.815841 284.306014 
L 302.933898 284.38306 
L 303.248714 284.459656 
L 303.36677 284.535807 
L 303.681587 284.611513 
L 303.799643 284.686777 
L 304.11446 284.7616 
L 304.232516 284.835985 
L 304.547332 284.909934 
L 304.665388 284.983448 
L 304.980205 285.05653 
L 305.098261 285.129182 
L 305.413078 285.201405 
L 305.531134 285.273202 
L 305.84595 285.344574 
L 305.964007 285.415524 
L 306.278823 285.486053 
L 306.396879 285.556164 
L 306.711696 285.625858 
L 306.829752 285.695137 
L 307.144569 285.764004 
L 307.262625 285.83246 
L 307.577441 285.900508 
L 307.695498 285.968148 
L 308.010314 286.035384 
L 308.12837 286.102218 
L 308.443187 286.168649 
L 308.561243 286.234682 
L 308.87606 286.300318 
L 308.994116 286.365558 
L 309.308932 286.430406 
L 309.426988 286.494861 
L 309.741805 286.558928 
L 309.859861 286.622607 
L 310.174678 286.6859 
L 310.292734 286.748809 
L 310.60755 286.811337 
L 310.725607 286.873485 
L 311.040423 286.935254 
L 311.158479 286.996648 
L 311.473296 287.057667 
L 311.591352 287.118315 
L 311.906169 287.178591 
L 312.024225 287.238499 
L 312.339041 287.298041 
L 312.457098 287.357217 
L 312.771914 287.41603 
L 312.88997 287.474482 
L 313.204787 287.532574 
L 313.322843 287.590309 
L 313.63766 287.647688 
L 313.755716 287.704714 
L 314.070532 287.761387 
L 314.188588 287.81771 
L 314.503405 287.873685 
L 314.621461 287.929313 
L 315.152714 288.039536 
L 315.27077 288.094134 
L 315.802023 288.202314 
L 315.920079 288.2559 
L 316.451332 288.362069 
L 316.569388 288.414656 
L 317.100641 288.518846 
L 317.218698 288.570451 
L 317.74995 288.672692 
L 317.868007 288.72333 
L 318.39926 288.823652 
L 318.517316 288.873339 
L 319.048569 288.971772 
L 319.166625 289.020522 
L 319.697878 289.117096 
L 319.815934 289.164923 
L 320.347187 289.259667 
L 320.465243 289.306586 
L 320.996496 289.399527 
L 321.114552 289.445552 
L 321.645805 289.536719 
L 321.763861 289.581864 
L 322.295114 289.671284 
L 322.41317 289.715562 
L 322.944423 289.803261 
L 323.062479 289.846685 
L 323.593732 289.93269 
L 323.711788 289.975274 
L 324.243041 290.059609 
L 324.361098 290.101365 
L 324.89235 290.184057 
L 325.010407 290.224996 
L 325.54166 290.306069 
L 325.659716 290.346205 
L 326.190969 290.425683 
L 326.309025 290.465027 
L 326.840278 290.542933 
L 326.958334 290.581497 
L 327.489587 290.657854 
L 327.607643 290.69565 
L 328.138896 290.77048 
L 328.256952 290.807517 
L 329.004641 290.917132 
L 329.122698 290.953175 
L 329.870387 291.059837 
L 329.988443 291.094905 
L 330.736132 291.198668 
L 330.854188 291.232779 
L 331.601878 291.333697 
L 331.719934 291.366868 
L 332.467623 291.464993 
L 332.585679 291.497242 
L 333.333369 291.592623 
L 333.451425 291.623965 
L 334.199114 291.716653 
L 334.31717 291.747105 
L 335.06486 291.837147 
L 335.182916 291.866725 
L 335.930605 291.954167 
L 336.048661 291.982887 
L 336.79635 292.067777 
L 336.914407 292.095654 
L 337.878532 292.205086 
L 337.996588 292.23193 
L 338.960714 292.337276 
L 339.07877 292.36311 
L 340.042896 292.464463 
L 340.160952 292.48931 
L 341.125078 292.586761 
L 341.243134 292.610644 
L 342.20726 292.704286 
L 342.325316 292.727228 
L 343.289441 292.817149 
L 343.407498 292.839172 
L 344.58806 292.946595 
L 344.706116 292.967547 
L 345.886678 293.069697 
L 346.004734 293.089611 
L 347.185296 293.186655 
L 347.303352 293.205565 
L 348.70035 293.315615 
L 348.824965 293.333397 
L 350.215405 293.436823 
L 350.34002 293.453526 
L 351.73046 293.55062 
L 351.855074 293.566292 
L 353.46195 293.672047 
L 353.586565 293.686602 
L 355.193441 293.78478 
L 355.318056 293.798288 
L 357.141369 293.9019 
L 357.272542 293.914312 
L 359.305732 294.020924 
L 359.436906 294.032225 
L 361.686532 294.139659 
L 361.824264 294.14987 
L 364.283769 294.256387 
L 364.421501 294.265573 
L 367.097441 294.370082 
L 367.241732 294.378351 
L 370.343987 294.488134 
L 370.494836 294.495596 
L 373.806969 294.602858 
L 373.964377 294.60975 
L 377.486387 294.717272 
L 377.643795 294.723877 
L 381.165805 294.829319 
L 381.323213 294.835948 
L 384.845223 294.944186 
L 385.002631 294.951138 
L 388.308205 295.05936 
L 388.459055 295.066883 
L 391.55475 295.177311 
L 391.699041 295.185605 
L 394.368423 295.290067 
L 394.506155 295.299215 
L 396.96566 295.404873 
L 397.103392 295.414962 
L 398.487273 295.488 
L 398.487273 295.488 
" clip-path="url(#p4eb9892bbc)" style="fill: none; stroke: #1f77b4; stroke-width: 2; stroke-linecap: square"/>
   </g>
   <g id="line2d_26">
    <path d="M 57.6 300.843364 
L 414.72 300.843364 
" clip-path="url(#p4eb9892bbc)" style="fill: none; stroke-dasharray: 7.4,3.2; stroke-dashoffset: 0; stroke: #1f77b4; stroke-width: 2"/>
   </g>
   <g id="patch_3">
    <path d="M 57.6 307.584 
L 57.6 41.472 
" style="fill: none; stroke: #000000; stroke-width: 0.8; stroke-linejoin: miter; stroke-linecap: square"/>
   </g>
   <g id="patch_4">
    <path d="M 414.72 307.584 
L 414.72 41.472 
" style="fill: none; stroke: #000000; stroke-width: 0.8; stroke-linejoin: miter; stroke-linecap: square"/>
   </g>
   <g id="patch_5">
    <path d="M 57.6 307.584 
L 414.72 307.584 
" style="fill: none; stroke: #000000; stroke-width: 0.8; stroke-linejoin: miter; stroke-linecap: square"/>
   </g>
   <g id="patch_6">
    <path d="M 57.6 41.472 
L 414.72 41.472 
" style="fill: none; stroke: #000000; stroke-width: 0.8; stroke-linejoin: miter; stroke-linecap: square"/>
   </g>
   <g id="legend_1">
    <g id="patch_7">
     <path d="M 300.977813 78.82825 
L 407.72 78.82825 
Q 409.72 78.82825 409.72 76.82825 
L 409.72 48.472 
Q 409.72 46.472 407.72 46.472 
L 300.977813 46.472 
Q 298.977813 46.472 298.977813 48.472 
L 298.977813 76.82825 
Q 298.977813 78.82825 300.977813 78.82825 
z
" style="fill: #ffffff; opacity: 0.8; stroke: #cccccc; stroke-linejoin: miter"/>
    </g>
    <g id="line2d_27">
     <path d="M 302.977813 54.570437 
L 312.977813 54.570437 
L 322.977813 54.570437 
" style="fill: none; stroke: #1f77b4; stroke-width: 2; stroke-linecap: square"/>
    </g>
    <g id="text_15">
     <!-- Simulated VQE -->
     <g transform="translate(330.977813 58.070437) scale(0.1 -0.1)">
      <defs>
       <path id="DejaVuSans-53" d="M 3425 4513 
L 3425 3897 
Q 3066 4069 2747 4153 
Q 2428 4238 2131 4238 
Q 1616 4238 1336 4038 
Q 1056 3838 1056 3469 
Q 1056 3159 1242 3001 
Q 1428 2844 1947 2747 
L 2328 2669 
Q 3034 2534 3370 2195 
Q 3706 1856 3706 1288 
Q 3706 609 3251 259 
Q 2797 -91 1919 -91 
Q 1588 -91 1214 -16 
Q 841 59 441 206 
L 441 856 
Q 825 641 1194 531 
Q 1563 422 1919 422 
Q 2459 422 2753 634 
Q 3047 847 3047 1241 
Q 3047 1584 2836 1778 
Q 2625 1972 2144 2069 
L 1759 2144 
Q 1053 2284 737 2584 
Q 422 2884 422 3419 
Q 422 4038 858 4394 
Q 1294 4750 2059 4750 
Q 2388 4750 2728 4690 
Q 3069 4631 3425 4513 
z
" transform="scale(0.015625)"/>
       <path id="DejaVuSans-6d" d="M 3328 2828 
Q 3544 3216 3844 3400 
Q 4144 3584 4550 3584 
Q 5097 3584 5394 3201 
Q 5691 2819 5691 2113 
L 5691 0 
L 5113 0 
L 5113 2094 
Q 5113 2597 4934 2840 
Q 4756 3084 4391 3084 
Q 3944 3084 3684 2787 
Q 3425 2491 3425 1978 
L 3425 0 
L 2847 0 
L 2847 2094 
Q 2847 2600 2669 2842 
Q 2491 3084 2119 3084 
Q 1678 3084 1418 2786 
Q 1159 2488 1159 1978 
L 1159 0 
L 581 0 
L 581 3500 
L 1159 3500 
L 1159 2956 
Q 1356 3278 1631 3431 
Q 1906 3584 2284 3584 
Q 2666 3584 2933 3390 
Q 3200 3197 3328 2828 
z
" transform="scale(0.015625)"/>
       <path id="DejaVuSans-75" d="M 544 1381 
L 544 3500 
L 1119 3500 
L 1119 1403 
Q 1119 906 1312 657 
Q 1506 409 1894 409 
Q 2359 409 2629 706 
Q 2900 1003 2900 1516 
L 2900 3500 
L 3475 3500 
L 3475 0 
L 2900 0 
L 2900 538 
Q 2691 219 2414 64 
Q 2138 -91 1772 -91 
Q 1169 -91 856 284 
Q 544 659 544 1381 
z
M 1991 3584 
L 1991 3584 
z
" transform="scale(0.015625)"/>
       <path id="DejaVuSans-6c" d="M 603 4863 
L 1178 4863 
L 1178 0 
L 603 0 
L 603 4863 
z
" transform="scale(0.015625)"/>
       <path id="DejaVuSans-64" d="M 2906 2969 
L 2906 4863 
L 3481 4863 
L 3481 0 
L 2906 0 
L 2906 525 
Q 2725 213 2448 61 
Q 2172 -91 1784 -91 
Q 1150 -91 751 415 
Q 353 922 353 1747 
Q 353 2572 751 3078 
Q 1150 3584 1784 3584 
Q 2172 3584 2448 3432 
Q 2725 3281 2906 2969 
z
M 947 1747 
Q 947 1113 1208 752 
Q 1469 391 1925 391 
Q 2381 391 2643 752 
Q 2906 1113 2906 1747 
Q 2906 2381 2643 2742 
Q 2381 3103 1925 3103 
Q 1469 3103 1208 2742 
Q 947 2381 947 1747 
z
" transform="scale(0.015625)"/>
       <path id="DejaVuSans-20" transform="scale(0.015625)"/>
       <path id="DejaVuSans-56" d="M 1831 0 
L 50 4666 
L 709 4666 
L 2188 738 
L 3669 4666 
L 4325 4666 
L 2547 0 
L 1831 0 
z
" transform="scale(0.015625)"/>
       <path id="DejaVuSans-51" d="M 2522 4238 
Q 1834 4238 1429 3725 
Q 1025 3213 1025 2328 
Q 1025 1447 1429 934 
Q 1834 422 2522 422 
Q 3209 422 3611 934 
Q 4013 1447 4013 2328 
Q 4013 3213 3611 3725 
Q 3209 4238 2522 4238 
z
M 3406 84 
L 4238 -825 
L 3475 -825 
L 2784 -78 
Q 2681 -84 2626 -87 
Q 2572 -91 2522 -91 
Q 1538 -91 948 567 
Q 359 1225 359 2328 
Q 359 3434 948 4092 
Q 1538 4750 2522 4750 
Q 3503 4750 4090 4092 
Q 4678 3434 4678 2328 
Q 4678 1516 4351 937 
Q 4025 359 3406 84 
z
" transform="scale(0.015625)"/>
      </defs>
      <use xlink:href="#DejaVuSans-53"/>
      <use xlink:href="#DejaVuSans-69" x="63.476562"/>
      <use xlink:href="#DejaVuSans-6d" x="91.259766"/>
      <use xlink:href="#DejaVuSans-75" x="188.671875"/>
      <use xlink:href="#DejaVuSans-6c" x="252.050781"/>
      <use xlink:href="#DejaVuSans-61" x="279.833984"/>
      <use xlink:href="#DejaVuSans-74" x="341.113281"/>
      <use xlink:href="#DejaVuSans-65" x="380.322266"/>
      <use xlink:href="#DejaVuSans-64" x="441.845703"/>
      <use xlink:href="#DejaVuSans-20" x="505.322266"/>
      <use xlink:href="#DejaVuSans-56" x="537.109375"/>
      <use xlink:href="#DejaVuSans-51" x="605.517578"/>
      <use xlink:href="#DejaVuSans-45" x="684.228516"/>
     </g>
    </g>
    <g id="line2d_28">
     <path d="M 302.977813 69.248562 
L 312.977813 69.248562 
L 322.977813 69.248562 
" style="fill: none; stroke-dasharray: 7.4,3.2; stroke-dashoffset: 0; stroke: #1f77b4; stroke-width: 2"/>
    </g>
    <g id="text_16">
     <!-- Target: -8.0 -->
     <g transform="translate(330.977813 72.748562) scale(0.1 -0.1)">
      <defs>
       <path id="DejaVuSans-54" d="M -19 4666 
L 3928 4666 
L 3928 4134 
L 2272 4134 
L 2272 0 
L 1638 0 
L 1638 4134 
L -19 4134 
L -19 4666 
z
" transform="scale(0.015625)"/>
       <path id="DejaVuSans-3a" d="M 750 794 
L 1409 794 
L 1409 0 
L 750 0 
L 750 794 
z
M 750 3309 
L 1409 3309 
L 1409 2516 
L 750 2516 
L 750 3309 
z
" transform="scale(0.015625)"/>
       <path id="DejaVuSans-2d" d="M 313 2009 
L 1997 2009 
L 1997 1497 
L 313 1497 
L 313 2009 
z
" transform="scale(0.015625)"/>
       <path id="DejaVuSans-2e" d="M 684 794 
L 1344 794 
L 1344 0 
L 684 0 
L 684 794 
z
" transform="scale(0.015625)"/>
      </defs>
      <use xlink:href="#DejaVuSans-54"/>
      <use xlink:href="#DejaVuSans-61" x="44.583984"/>
      <use xlink:href="#DejaVuSans-72" x="105.863281"/>
      <use xlink:href="#DejaVuSans-67" x="145.226562"/>
      <use xlink:href="#DejaVuSans-65" x="208.703125"/>
      <use xlink:href="#DejaVuSans-74" x="270.226562"/>
      <use xlink:href="#DejaVuSans-3a" x="309.435547"/>
      <use xlink:href="#DejaVuSans-20" x="343.126953"/>
      <use xlink:href="#DejaVuSans-2d" x="374.914062"/>
      <use xlink:href="#DejaVuSans-38" x="410.998047"/>
      <use xlink:href="#DejaVuSans-2e" x="474.621094"/>
      <use xlink:href="#DejaVuSans-30" x="506.408203"/>
     </g>
    </g>
   </g>
  </g>
 </g>
 <defs>
  <clipPath id="p4eb9892bbc">
   <rect x="57.6" y="41.472" width="357.12" height="266.112"/>
  </clipPath>
 </defs>
</svg>
